{"glyphs":{"0":{"ha":889,"x_min":0,"x_max":0,"o":"m 304 1014 b 78 783 153 1014 78 938 l 78 231 b 304 0 78 76 153 0 l 586 0 b 811 231 736 0 811 76 l 811 783 b 586 1014 811 938 736 1014 z m 183 767 b 324 910 183 863 231 910 l 565 910 b 706 767 660 910 706 863 l 706 247 b 565 104 706 151 660 104 l 324 104 b 183 247 231 104 183 151 z "},"1":{"ha":369,"x_min":0,"x_max":0,"o":"m 35 1014 l 35 910 l 86 910 b 183 811 151 910 183 876 l 183 0 l 289 0 l 289 831 b 108 1014 289 953 229 1014 z "},"2":{"ha":819,"x_min":0,"x_max":0,"o":"m 101 1014 l 101 910 l 496 910 b 650 772 597 910 650 864 l 650 715 b 501 565 650 615 600 565 l 315 565 b 83 328 160 565 83 486 l 83 0 l 733 0 l 733 104 l 189 104 l 189 318 b 336 469 189 419 238 469 l 519 469 b 753 707 675 469 753 549 l 753 782 b 507 1014 753 938 671 1014 z "},"3":{"ha":775,"x_min":0,"x_max":0,"o":"m 64 1014 l 64 910 l 471 910 b 610 767 564 910 610 861 l 610 681 b 467 564 610 603 563 564 l 83 564 l 83 464 l 467 464 b 617 339 567 464 617 422 l 617 236 b 475 104 617 149 569 104 l 58 104 l 58 0 l 494 0 b 721 219 646 0 721 72 l 721 329 b 603 513 721 424 681 485 b 713 689 676 540 713 603 l 713 783 b 486 1014 713 938 638 1014 z "},"4":{"ha":796,"x_min":0,"x_max":0,"o":"m 331 1014 l 33 321 l 33 228 l 565 228 l 565 0 l 669 0 l 669 228 l 764 228 l 764 326 l 669 326 l 669 1014 l 565 1014 l 565 326 l 143 326 l 435 1014 z "},"5":{"ha":797,"x_min":0,"x_max":0,"o":"m 89 1014 l 89 481 l 513 481 b 643 347 600 481 643 436 l 643 251 b 499 104 643 153 594 104 l 88 104 l 88 0 l 511 0 b 747 240 668 0 747 79 l 747 357 b 532 576 747 503 675 576 l 193 576 l 193 910 l 701 910 l 701 1014 z "},"6":{"ha":864,"x_min":0,"x_max":0,"o":"m 304 1014 b 78 783 153 1014 78 938 l 78 231 b 304 0 78 76 153 0 l 576 0 b 789 217 718 0 789 72 l 789 364 b 576 581 789 508 718 581 l 239 581 l 239 483 l 558 483 b 689 351 646 483 689 440 l 689 238 b 557 104 689 149 644 104 l 324 104 b 183 247 231 104 183 151 l 183 767 b 324 910 183 863 231 910 l 763 910 l 763 1014 z "},"7":{"ha":718,"x_min":0,"x_max":0,"o":"m 35 1014 l 35 910 l 558 910 l 157 0 l 274 0 l 678 922 l 678 1014 z "},"8":{"ha":839,"x_min":0,"x_max":0,"o":"m 289 1014 b 63 783 138 1014 63 938 l 63 689 b 172 513 63 603 99 542 b 54 329 93 485 54 424 l 54 219 b 281 0 54 72 131 0 l 558 0 b 785 219 708 0 785 72 l 785 329 b 667 513 785 424 744 485 b 776 689 740 540 776 603 l 776 783 b 550 1014 776 938 700 1014 z m 160 346 b 308 471 160 429 208 471 l 531 471 b 679 346 631 471 679 429 l 679 233 b 539 101 679 146 633 101 l 299 101 b 160 233 206 101 160 146 z m 164 769 b 304 913 164 864 211 913 l 533 913 b 674 769 628 913 674 864 l 674 674 b 531 557 674 596 626 557 l 308 557 b 164 674 211 557 164 596 z "},"9":{"ha":858,"x_min":0,"x_max":0,"o":"m 282 1014 b 69 797 139 1014 69 942 l 69 653 b 282 436 69 508 139 436 l 619 436 l 619 533 l 300 533 b 172 665 214 533 172 576 l 172 776 b 303 910 172 865 215 910 l 535 910 b 675 767 628 910 675 863 l 675 247 b 535 104 675 151 628 104 l 111 104 l 111 0 l 554 0 b 781 231 704 0 781 76 l 781 783 b 554 1014 781 938 704 1014 z "},"\u0017":{"ha":328,"x_min":0,"x_max":0,"o":""}," ":{"ha":328,"x_min":0,"x_max":0,"o":""},"!":{"ha":275,"x_min":0,"x_max":0,"o":"m 88 1014 l 88 274 l 189 274 l 189 1014 z m 88 161 l 88 0 l 189 0 l 189 161 z "},"\"":{"ha":456,"x_min":0,"x_max":0,"o":"m 288 1014 l 288 751 l 314 619 l 363 619 l 389 751 l 389 1014 z m 68 1014 l 68 751 l 94 619 l 143 619 l 169 751 l 169 1014 z "},"#":{"ha":854,"x_min":0,"x_max":0,"o":"m 229 1014 l 229 713 l 68 713 l 68 639 l 229 639 l 229 376 l 68 376 l 68 301 l 229 301 l 229 0 l 301 0 l 301 301 l 551 301 l 551 0 l 624 0 l 624 301 l 786 301 l 786 376 l 624 376 l 624 639 l 786 639 l 786 713 l 624 713 l 624 1014 l 551 1014 l 551 713 l 301 713 l 301 1014 z m 301 639 l 551 639 l 551 376 l 301 376 z "},"$":{"ha":751,"x_min":0,"x_max":0,"o":"m 353 1100 l 353 857 l 233 857 b 67 697 122 857 67 803 l 67 615 b 226 467 67 517 121 467 l 518 467 b 603 388 575 467 603 440 l 603 306 b 504 219 603 247 571 219 l 74 219 l 74 132 l 353 132 l 353 -112 l 426 -112 l 426 132 l 531 132 b 701 293 644 132 701 186 l 701 399 b 543 547 701 497 649 547 l 251 547 b 165 626 193 547 165 574 l 165 683 b 258 769 165 740 196 769 l 669 769 l 669 857 l 426 857 l 426 1100 z "},"%":{"ha":1204,"x_min":0,"x_max":0,"o":"m 872 1014 l 228 0 l 311 0 l 954 1014 z m 843 565 b 713 432 756 565 713 521 l 713 132 b 843 0 713 44 756 0 l 997 0 b 1126 132 1082 0 1126 44 l 1126 432 b 997 565 1126 521 1082 565 z m 783 421 b 856 494 783 471 806 494 l 985 494 b 1056 421 1032 494 1056 471 l 1056 143 b 985 69 1056 94 1032 69 l 856 69 b 783 143 806 69 783 94 z m 208 1013 b 78 879 121 1013 78 968 l 78 579 b 208 447 78 492 121 447 l 363 447 b 492 579 447 447 492 492 l 492 879 b 363 1013 492 968 447 1013 z m 149 868 b 221 942 149 918 171 942 l 350 942 b 421 868 397 942 421 918 l 421 590 b 350 517 421 542 397 517 l 221 517 b 149 590 171 517 149 542 z "},"&":{"ha":833,"x_min":0,"x_max":0,"o":"m 289 1014 b 63 783 138 1014 63 938 l 63 725 b 174 547 63 639 99 576 b 54 365 94 521 54 460 l 54 219 b 281 0 54 72 131 0 l 785 0 l 785 100 l 644 100 l 644 503 l 781 503 l 781 593 l 306 593 b 161 710 208 593 161 632 l 161 771 b 301 914 161 865 207 914 l 517 914 l 517 1014 z m 156 378 b 306 503 156 461 206 503 l 549 503 l 549 100 l 296 100 b 156 233 203 100 156 146 z "},"'":{"ha":238,"x_min":0,"x_max":0,"o":"m 68 1014 l 68 751 l 94 619 l 143 619 l 169 751 l 169 1014 z "},"(":{"ha":529,"x_min":0,"x_max":0,"o":"m 399 1296 b 135 506 243 1074 135 797 b 399 -285 135 214 243 -62 l 478 -285 b 222 506 328 -61 222 211 b 478 1296 222 800 328 1072 z "},")":{"ha":531,"x_min":0,"x_max":0,"o":"m 53 1296 b 307 506 203 1072 307 800 b 53 -285 307 211 203 -61 l 131 -285 b 396 506 286 -62 396 214 b 131 1296 396 797 286 1074 z "},"*":{"ha":788,"x_min":0,"x_max":0,"o":"m 117 840 l 89 757 l 343 685 l 179 474 l 247 421 l 393 647 l 538 421 l 607 472 l 443 683 l 697 756 l 671 839 l 424 744 l 436 1014 l 351 1014 l 364 744 z "},"+":{"ha":908,"x_min":0,"x_max":0,"o":"m 411 903 l 411 551 l 68 551 l 68 463 l 411 463 l 411 111 l 497 111 l 497 463 l 840 463 l 840 551 l 497 551 l 497 903 z "},",":{"ha":238,"x_min":0,"x_max":0,"o":"m 68 163 l 68 4 l 101 4 l 85 -186 l 136 -186 l 169 14 l 169 163 z "},"-":{"ha":467,"x_min":0,"x_max":0,"o":"m 35 485 l 35 399 l 432 399 l 432 485 z "},".":{"ha":238,"x_min":0,"x_max":0,"o":"m 68 161 l 68 0 l 169 0 l 169 161 z "},"/":{"ha":535,"x_min":0,"x_max":0,"o":"m 447 1215 l 0 -162 l 88 -162 l 535 1215 z "},":":{"ha":238,"x_min":0,"x_max":0,"o":"m 68 722 l 68 561 l 169 561 l 169 722 z m 68 272 l 68 111 l 169 111 l 169 272 z "},";":{"ha":238,"x_min":0,"x_max":0,"o":"m 68 274 l 68 115 l 101 115 l 85 -75 l 136 -75 l 169 125 l 169 274 z m 68 722 l 68 561 l 169 561 l 169 722 z "},"<":{"ha":908,"x_min":0,"x_max":0,"o":"m 68 551 l 68 464 l 840 114 l 840 206 l 160 507 l 840 808 l 840 900 z "},"=":{"ha":908,"x_min":0,"x_max":0,"o":"m 68 742 l 68 653 l 840 653 l 840 742 z m 68 361 l 68 272 l 840 272 l 840 361 z "},">":{"ha":908,"x_min":0,"x_max":0,"o":"m 840 463 l 840 550 l 68 900 l 68 808 l 749 506 l 68 206 l 68 114 z "},"?":{"ha":694,"x_min":0,"x_max":0,"o":"m 35 1014 l 35 914 l 444 914 b 563 789 522 914 563 872 l 563 685 b 457 571 563 608 526 571 l 313 571 b 174 429 219 571 174 524 l 174 274 l 275 274 l 275 411 b 344 486 275 461 299 486 l 483 486 b 661 679 601 486 661 550 l 661 808 b 465 1014 661 946 596 1014 z m 174 161 l 174 0 l 275 0 l 275 161 z "},"@":{"ha":925,"x_min":0,"x_max":0,"o":"m 251 921 b 78 742 133 921 78 861 l 78 -65 b 251 -246 78 -183 133 -246 l 847 -246 l 847 -153 l 274 -153 b 167 -42 201 -153 167 -115 l 167 725 b 274 835 167 799 201 835 l 656 835 b 764 725 728 835 764 799 l 764 296 b 656 185 764 222 728 185 l 522 185 b 415 296 451 185 415 222 l 415 410 b 522 519 415 485 451 519 l 708 519 l 708 594 l 511 594 b 336 418 392 594 336 536 l 336 285 b 511 106 336 167 392 106 l 671 106 b 846 285 788 106 846 167 l 846 742 b 671 921 846 861 788 921 z "},"A":{"ha":981,"x_min":0,"x_max":0,"o":"m 319 344 l 282 247 l 747 247 l 847 0 l 965 0 l 543 1014 l 429 1014 l 17 0 l 126 0 l 485 894 l 708 344 z "},"B":{"ha":872,"x_min":0,"x_max":0,"o":"m 88 1014 l 88 0 l 590 0 b 818 219 742 0 818 72 l 818 329 b 700 513 818 424 778 485 b 810 689 774 542 810 603 l 810 783 b 583 1014 810 938 733 1014 z m 193 910 l 567 910 b 707 767 661 910 707 861 l 707 678 b 563 561 707 600 660 561 l 249 561 l 249 468 l 563 468 b 713 343 663 468 713 425 l 713 236 b 572 104 713 149 665 104 l 193 104 z "},"C":{"ha":788,"x_min":0,"x_max":0,"o":"m 304 1014 b 78 783 153 1014 78 938 l 78 231 b 304 0 78 76 153 0 l 724 0 l 724 104 l 324 104 b 183 247 231 104 183 151 l 183 767 b 324 910 183 863 231 910 l 724 910 l 724 1014 z "},"D":{"ha":928,"x_min":0,"x_max":0,"o":"m 88 1014 l 88 0 l 193 0 l 193 910 l 572 910 b 744 735 688 910 744 853 l 744 279 b 572 104 744 161 688 104 l 249 104 l 249 0 l 583 0 b 850 272 761 0 850 90 l 850 742 b 583 1014 850 924 761 1014 z "},"E":{"ha":783,"x_min":0,"x_max":0,"o":"m 88 1014 l 88 0 l 724 0 l 724 104 l 193 104 l 193 465 l 710 465 l 710 565 l 193 565 l 193 910 l 718 910 l 718 1014 z "},"F":{"ha":746,"x_min":0,"x_max":0,"o":"m 88 1014 l 88 0 l 193 0 l 193 450 l 692 450 l 692 550 l 193 550 l 193 910 l 699 910 l 699 1014 z "},"G":{"ha":899,"x_min":0,"x_max":0,"o":"m 304 1014 b 78 783 153 1014 78 938 l 78 231 b 304 0 78 76 153 0 l 617 0 b 821 206 753 0 821 68 l 821 576 l 435 576 l 435 483 l 722 483 l 722 231 b 596 104 722 146 681 104 l 324 104 b 183 247 231 104 183 151 l 183 767 b 324 910 183 863 231 910 l 797 910 l 797 1014 z "},"H":{"ha":900,"x_min":0,"x_max":0,"o":"m 88 1014 l 88 0 l 193 0 l 193 472 l 707 472 l 707 0 l 813 0 l 813 1014 l 707 1014 l 707 571 l 193 571 l 193 1014 z "},"I":{"ha":279,"x_min":0,"x_max":0,"o":"m 88 1014 l 88 0 l 193 0 l 193 1014 z "},"J":{"ha":629,"x_min":0,"x_max":0,"o":"m 442 1014 l 442 247 b 301 104 442 151 394 104 l 35 104 l 35 0 l 321 0 b 547 231 471 0 547 76 l 547 1014 z "},"K":{"ha":889,"x_min":0,"x_max":0,"o":"m 88 1014 l 88 0 l 193 0 l 193 450 l 600 450 b 722 325 682 450 722 408 l 722 0 l 828 0 l 828 342 b 635 539 828 472 764 539 l 322 539 l 775 1014 l 650 1014 l 197 526 l 193 526 l 193 1014 z "},"L":{"ha":747,"x_min":0,"x_max":0,"o":"m 88 1014 l 88 0 l 711 0 l 711 104 l 193 104 l 193 1014 z "},"M":{"ha":1117,"x_min":0,"x_max":0,"o":"m 88 1014 l 88 0 l 185 0 l 185 819 l 510 0 l 611 0 l 931 818 l 931 0 l 1029 0 l 1029 1014 l 906 1014 l 561 115 l 213 1014 z "},"N":{"ha":949,"x_min":0,"x_max":0,"o":"m 88 1014 l 88 0 l 190 0 l 190 850 l 769 0 l 863 0 l 863 1014 l 760 1014 l 760 188 l 203 1014 z "},"O":{"ha":929,"x_min":0,"x_max":0,"o":"m 304 1014 b 78 783 153 1014 78 938 l 78 231 b 304 0 78 76 153 0 l 626 0 b 853 231 776 0 853 76 l 853 783 b 626 1014 853 938 776 1014 z m 183 767 b 324 910 183 863 231 910 l 606 910 b 746 767 700 910 746 863 l 746 247 b 606 104 746 151 700 104 l 324 104 b 183 247 231 104 183 151 z "},"P":{"ha":871,"x_min":0,"x_max":0,"o":"m 88 1014 l 88 0 l 193 0 l 193 910 l 600 910 b 731 775 688 910 731 865 l 731 685 b 600 550 731 596 688 550 l 249 550 l 249 451 l 610 451 b 836 683 761 451 836 528 l 836 782 b 610 1014 836 938 761 1014 z "},"Q":{"ha":929,"x_min":0,"x_max":0,"o":"m 304 1014 b 78 783 153 1014 78 938 l 78 236 b 304 6 78 82 153 6 l 408 6 l 408 -76 b 611 -285 408 -215 475 -285 l 718 -285 l 718 -189 l 621 -189 b 496 -62 538 -189 496 -147 l 496 6 l 626 6 b 853 236 776 6 853 82 l 853 783 b 626 1014 853 938 776 1014 z m 183 767 b 324 910 183 863 231 910 l 606 910 b 746 767 700 910 746 863 l 746 251 b 606 108 746 156 700 108 l 324 108 b 183 251 231 108 183 156 z "},"R":{"ha":897,"x_min":0,"x_max":0,"o":"m 88 1014 l 88 0 l 193 0 l 193 910 l 600 910 b 707 801 671 910 707 874 l 707 668 b 600 563 707 597 671 563 l 249 563 l 249 481 l 751 0 l 892 0 l 388 478 l 618 478 b 810 667 746 478 810 546 l 810 818 b 615 1014 810 949 744 1014 z "},"S":{"ha":835,"x_min":0,"x_max":0,"o":"m 278 1014 b 60 792 132 1014 60 939 l 60 675 b 257 474 60 540 125 474 l 557 474 b 669 358 632 474 669 435 l 669 233 b 543 104 669 147 628 104 l 67 104 l 67 0 l 554 0 b 772 222 700 0 772 75 l 772 367 b 575 568 772 501 707 568 l 276 568 b 164 683 200 568 164 607 l 164 781 b 289 910 164 867 206 910 l 739 910 l 739 1014 z "},"T":{"ha":783,"x_min":0,"x_max":0,"o":"m 35 1014 l 35 910 l 340 910 l 340 0 l 446 0 l 446 910 l 747 910 l 747 1014 z "},"U":{"ha":928,"x_min":0,"x_max":0,"o":"m 82 1014 l 82 231 b 308 0 82 76 157 0 l 619 0 b 846 231 769 0 846 76 l 846 1014 l 740 1014 l 740 247 b 599 104 740 151 693 104 l 328 104 b 188 247 235 104 188 151 l 188 1014 z "},"V":{"ha":969,"x_min":0,"x_max":0,"o":"m 17 1014 l 432 0 l 547 0 l 954 1014 l 842 1014 l 489 126 l 135 1014 z "},"W":{"ha":1290,"x_min":0,"x_max":0,"o":"m 19 1014 l 292 0 l 397 0 l 647 865 l 889 0 l 996 0 l 1272 1014 l 1163 1014 l 940 175 l 701 1014 l 596 1014 l 349 178 l 129 1014 z "},"X":{"ha":910,"x_min":0,"x_max":0,"o":"m 44 1014 l 397 517 l 19 0 l 138 0 l 456 435 l 765 0 l 890 0 l 524 513 l 889 1014 l 772 1014 l 465 596 l 167 1014 z "},"Y":{"ha":906,"x_min":0,"x_max":0,"o":"m 14 1014 l 401 431 l 401 0 l 508 0 l 508 431 l 892 1014 l 774 1014 l 456 521 l 136 1014 z "},"Z":{"ha":856,"x_min":0,"x_max":0,"o":"m 72 1014 l 72 910 l 640 910 l 71 108 l 71 0 l 782 0 l 782 104 l 200 104 l 776 919 l 776 1014 z "},"[":{"ha":531,"x_min":0,"x_max":0,"o":"m 118 1296 l 118 -285 l 511 -285 l 511 -196 l 206 -196 l 206 1207 l 511 1207 l 511 1296 z "},"\\":{"ha":535,"x_min":0,"x_max":0,"o":"m 0 1215 l 447 -162 l 535 -162 l 88 1215 z "},"]":{"ha":531,"x_min":0,"x_max":0,"o":"m 19 1296 l 19 1207 l 325 1207 l 325 -196 l 19 -196 l 19 -285 l 413 -285 l 413 1296 z "},"^":{"ha":940,"x_min":0,"x_max":0,"o":"m 428 1153 l 88 361 l 178 361 l 471 1056 l 764 361 l 854 361 l 515 1153 z "},"_":{"ha":747,"x_min":0,"x_max":0,"o":"m 0 -106 l 0 -192 l 750 -192 l 750 -106 z "},"`":{"ha":547,"x_min":0,"x_max":0,"o":"m 94 1136 l 351 822 l 451 822 l 214 1136 z "},"a":{"ha":824,"x_min":0,"x_max":0,"o":"m 94 725 l 94 626 l 508 626 b 646 483 600 626 646 578 l 646 235 b 504 88 646 136 599 88 l 283 88 b 169 199 208 88 169 125 l 169 232 b 282 328 169 296 207 328 l 590 328 l 590 410 l 256 410 b 72 249 132 410 72 356 l 72 192 b 265 0 72 64 136 0 l 521 0 b 747 232 671 0 747 78 l 747 493 b 521 725 747 647 671 725 z "},"b":{"ha":851,"x_min":0,"x_max":0,"o":"m 82 1024 l 82 232 b 308 0 82 78 157 0 l 547 0 b 774 232 699 0 774 78 l 774 493 b 547 725 774 647 699 725 l 239 725 l 239 624 l 528 624 b 672 476 624 624 672 575 l 672 249 b 528 100 672 150 624 100 l 326 100 b 183 249 232 100 183 150 l 183 1024 z "},"c":{"ha":693,"x_min":0,"x_max":0,"o":"m 304 725 b 78 493 153 725 78 647 l 78 232 b 304 0 78 78 153 0 l 628 0 l 628 100 l 324 100 b 179 249 228 100 179 150 l 179 476 b 324 624 179 575 228 624 l 628 624 l 628 725 z "},"d":{"ha":851,"x_min":0,"x_max":0,"o":"m 668 1024 l 668 249 b 524 100 668 150 619 100 l 324 100 b 179 249 228 100 179 150 l 179 476 b 324 624 179 575 228 624 l 613 624 l 613 725 l 304 725 b 78 493 153 725 78 647 l 78 232 b 304 0 78 78 153 0 l 543 0 b 769 232 694 0 769 78 l 769 1024 z "},"e":{"ha":824,"x_min":0,"x_max":0,"o":"m 304 725 b 78 493 153 725 78 647 l 78 232 b 304 0 78 78 153 0 l 729 0 l 729 99 l 317 99 b 178 242 224 99 178 146 l 178 490 b 321 638 178 588 225 638 l 540 638 b 654 526 617 638 654 600 l 654 493 b 542 397 654 429 617 397 l 233 397 l 233 315 l 569 315 b 753 475 692 315 753 368 l 753 533 b 558 725 753 661 688 725 z "},"f":{"ha":385,"x_min":0,"x_max":0,"o":"m 258 1024 b 82 842 140 1024 82 964 l 82 0 l 182 0 l 182 635 l 343 635 l 343 725 l 182 725 l 182 839 b 279 939 182 906 214 939 l 349 939 l 349 1024 z "},"g":{"ha":849,"x_min":0,"x_max":0,"o":"m 304 725 b 78 493 153 725 78 647 l 78 263 b 304 44 78 117 153 44 l 613 44 l 613 139 l 324 139 b 179 278 228 139 179 185 l 179 476 b 324 624 179 575 228 624 l 524 624 b 668 476 619 624 668 575 l 668 11 b 524 -147 668 -94 619 -147 l 211 -147 l 211 -246 l 543 -246 b 769 0 694 -246 769 -164 l 769 493 b 543 725 769 647 694 725 z "},"h":{"ha":861,"x_min":0,"x_max":0,"o":"m 88 1024 l 88 0 l 189 0 l 189 624 l 533 624 b 678 476 629 624 678 575 l 678 0 l 779 0 l 779 493 b 553 725 779 647 704 725 l 189 725 l 189 1024 z "},"i":{"ha":275,"x_min":0,"x_max":0,"o":"m 88 718 l 88 0 l 189 0 l 189 718 z m 88 1024 l 88 863 l 189 863 l 189 1024 z "},"j":{"ha":358,"x_min":0,"x_max":0,"o":"m 169 718 l 169 -25 b 60 -147 169 -106 132 -147 l 14 -147 l 14 -246 l 79 -246 b 271 -36 207 -246 271 -175 l 271 718 z m 169 1024 l 169 863 l 271 863 l 271 1024 z "},"k":{"ha":813,"x_min":0,"x_max":0,"o":"m 88 1024 l 88 0 l 189 0 l 189 332 l 522 332 b 650 203 607 332 650 289 l 650 0 l 751 0 l 751 221 b 565 407 751 344 689 407 l 322 407 l 660 725 l 542 725 l 194 393 l 189 393 l 189 1024 z "},"l":{"ha":275,"x_min":0,"x_max":0,"o":"m 88 1024 l 88 0 l 189 0 l 189 1024 z "},"m":{"ha":1232,"x_min":0,"x_max":0,"o":"m 88 725 l 88 0 l 188 0 l 188 625 l 571 625 l 571 0 l 668 0 l 668 625 l 908 625 b 1050 476 1003 625 1050 575 l 1050 0 l 1151 0 l 1151 493 b 928 725 1151 647 1076 725 z "},"n":{"ha":861,"x_min":0,"x_max":0,"o":"m 88 725 l 88 0 l 189 0 l 189 624 l 533 624 b 678 476 629 624 678 575 l 678 0 l 779 0 l 779 493 b 553 725 779 647 704 725 z "},"o":{"ha":854,"x_min":0,"x_max":0,"o":"m 304 725 b 78 493 153 725 78 647 l 78 232 b 304 0 78 78 153 0 l 550 0 b 776 232 700 0 776 78 l 776 493 b 550 725 776 647 700 725 z m 179 476 b 324 624 179 575 228 624 l 531 624 b 675 476 626 624 675 575 l 675 249 b 531 100 675 150 626 100 l 324 100 b 179 249 228 100 179 150 z "},"p":{"ha":851,"x_min":0,"x_max":0,"o":"m 308 725 b 82 493 157 725 82 647 l 82 -246 l 183 -246 l 183 476 b 326 624 183 575 232 624 l 528 624 b 672 476 624 624 672 575 l 672 249 b 528 100 672 150 624 100 l 239 100 l 239 0 l 547 0 b 774 232 699 0 774 78 l 774 493 b 547 725 774 647 699 725 z "},"q":{"ha":851,"x_min":0,"x_max":0,"o":"m 304 725 b 78 493 153 725 78 647 l 78 232 b 304 0 78 78 153 0 l 613 0 l 613 100 l 324 100 b 179 249 228 100 179 150 l 179 476 b 324 624 179 575 228 624 l 524 624 b 668 476 619 624 668 575 l 668 -246 l 769 -246 l 769 493 b 543 725 769 647 694 725 z "},"r":{"ha":549,"x_min":0,"x_max":0,"o":"m 314 724 b 88 492 163 724 88 646 l 88 0 l 189 0 l 189 475 b 332 624 189 574 238 624 l 510 624 l 510 724 z "},"s":{"ha":751,"x_min":0,"x_max":0,"o":"m 228 725 b 61 565 117 725 61 671 l 61 483 b 221 335 61 385 115 335 l 513 335 b 597 256 569 335 597 308 l 597 174 b 499 88 597 115 565 88 l 68 88 l 68 0 l 525 0 b 696 161 639 0 696 54 l 696 267 b 538 415 696 365 643 415 l 246 415 b 160 494 188 415 160 442 l 160 551 b 253 638 160 608 190 638 l 664 638 l 664 725 z "},"t":{"ha":474,"x_min":0,"x_max":0,"o":"m 175 961 l 175 725 l 39 725 l 39 635 l 175 635 l 175 0 l 276 0 l 276 635 l 433 635 l 433 725 l 276 725 l 276 961 z "},"u":{"ha":851,"x_min":0,"x_max":0,"o":"m 82 724 l 82 232 b 308 0 82 78 157 0 l 543 0 b 769 232 693 0 769 78 l 769 724 l 669 724 l 669 249 b 525 100 669 150 621 100 l 326 100 b 183 249 232 100 183 150 l 183 724 z "},"v":{"ha":826,"x_min":0,"x_max":0,"o":"m 14 725 l 363 0 l 472 0 l 813 725 l 707 725 l 418 104 l 125 725 z "},"w":{"ha":1179,"x_min":0,"x_max":0,"o":"m 18 725 l 265 0 l 364 0 l 590 613 l 811 0 l 911 0 l 1161 725 l 1058 725 l 858 129 l 642 725 l 542 725 l 318 131 l 122 725 z "},"x":{"ha":833,"x_min":0,"x_max":0,"o":"m 700 725 l 429 431 l 161 725 l 36 725 l 357 369 l 14 0 l 133 0 l 417 306 l 693 0 l 821 0 l 486 367 l 819 725 z "},"y":{"ha":861,"x_min":0,"x_max":0,"o":"m 82 725 l 82 263 b 308 44 82 117 157 44 l 672 44 l 672 11 b 528 -147 672 -94 624 -147 l 215 -147 l 215 -246 l 547 -246 b 774 0 699 -246 774 -164 l 774 725 l 672 725 l 672 139 l 326 139 b 183 278 232 139 183 185 l 183 725 z "},"z":{"ha":783,"x_min":0,"x_max":0,"o":"m 74 725 l 74 631 l 569 631 l 71 99 l 71 0 l 717 0 l 717 94 l 204 94 l 711 639 l 711 725 z "},"{":{"ha":531,"x_min":0,"x_max":0,"o":"m 422 1296 b 247 1099 306 1296 247 1231 l 247 689 b 136 550 247 596 210 550 l 71 550 l 71 461 l 136 461 b 247 322 210 461 247 415 l 247 -87 b 422 -285 247 -219 306 -285 l 511 -285 l 511 -196 l 440 -196 b 333 -75 369 -196 333 -156 l 333 319 b 261 506 333 407 310 469 b 333 692 310 542 333 603 l 333 1086 b 440 1207 333 1167 369 1207 l 511 1207 l 511 1296 z "},"|":{"ha":563,"x_min":0,"x_max":0,"o":"m 238 1299 l 238 -285 l 325 -285 l 325 1299 z "},"}":{"ha":531,"x_min":0,"x_max":0,"o":"m 19 1296 l 19 1207 l 90 1207 b 196 1086 161 1207 196 1167 l 196 692 b 269 506 196 603 219 542 b 196 319 219 469 196 408 l 196 -75 b 90 -196 196 -156 161 -196 l 19 -196 l 19 -285 l 107 -285 b 283 -87 225 -285 283 -219 l 283 322 b 393 461 283 415 319 461 l 460 461 l 460 550 l 393 550 b 283 689 319 550 283 596 l 283 1099 b 107 1296 283 1231 225 1296 z "},"~":{"ha":908,"x_min":0,"x_max":0,"o":"m 68 442 b 249 531 136 507 181 531 b 663 407 404 531 503 407 b 840 482 739 407 793 436 l 840 585 b 660 492 772 514 722 492 b 246 617 508 492 408 617 b 68 540 164 617 110 585 z "}," ":{"ha":328,"x_min":0,"x_max":0,"o":""},"¡":{"ha":275,"x_min":0,"x_max":0,"o":"m 188 -246 l 188 494 l 86 494 l 86 -246 z m 188 607 l 188 768 l 86 768 l 86 607 z "},"¢":{"ha":719,"x_min":0,"x_max":0,"o":"m 375 1100 l 375 857 l 304 857 b 78 625 153 857 78 779 l 78 364 b 304 132 78 210 153 132 l 375 132 l 375 -112 l 449 -112 l 449 132 l 628 132 l 628 232 l 324 232 b 179 381 228 232 179 282 l 179 608 b 324 756 179 707 228 756 l 628 756 l 628 857 l 449 857 l 449 1100 z "},"£":{"ha":774,"x_min":0,"x_max":0,"o":"m 401 1014 b 175 783 251 1014 175 938 l 175 575 l 56 575 l 56 490 l 175 490 l 175 0 l 713 0 l 713 104 l 281 104 l 281 490 l 694 490 l 694 575 l 281 575 l 281 767 b 421 910 281 863 328 910 l 713 910 l 713 1014 z "},"¤":{"ha":908,"x_min":0,"x_max":0,"o":"m 213 818 l 150 756 l 229 674 b 225 625 226 660 225 643 l 225 389 b 229 339 225 371 226 354 l 150 258 l 213 196 l 278 263 b 371 240 301 247 332 240 l 536 240 b 629 264 575 240 606 247 l 696 196 l 758 258 l 678 340 b 683 389 682 354 683 371 l 683 625 b 678 674 683 643 682 658 l 758 756 l 696 818 l 629 750 b 536 774 606 765 575 774 l 371 774 b 278 750 332 774 301 765 z m 289 617 b 381 710 289 679 319 710 l 526 710 b 619 617 588 710 619 679 l 619 397 b 526 304 619 335 588 304 l 381 304 b 289 397 319 304 289 335 z "},"¥":{"ha":929,"x_min":0,"x_max":0,"o":"m 14 1014 l 385 454 l 201 454 l 201 368 l 401 368 l 401 215 l 201 215 l 201 129 l 401 129 l 401 0 l 508 0 l 508 129 l 715 129 l 715 215 l 508 215 l 508 368 l 715 368 l 715 454 l 524 454 l 892 1014 l 774 1014 l 456 521 l 136 1014 z "},"¦":{"ha":563,"x_min":0,"x_max":0,"o":"m 238 1299 l 238 646 l 325 646 l 325 1299 z m 238 368 l 238 -285 l 325 -285 l 325 368 z "},"§":{"ha":751,"x_min":0,"x_max":0,"o":"m 228 1015 b 61 856 117 1015 61 961 l 61 332 b 221 183 61 233 115 183 l 517 183 b 601 104 574 183 601 157 l 601 22 b 503 -64 601 -36 569 -64 l 72 -64 l 72 -151 l 529 -151 b 700 10 643 -151 700 -97 l 700 557 b 542 706 700 656 647 706 l 246 706 b 160 785 188 706 160 732 l 160 842 b 253 928 160 899 190 928 l 664 928 l 664 1015 z m 221 625 l 517 625 b 601 546 574 625 601 599 l 601 257 b 542 264 583 261 564 264 l 246 264 b 160 343 188 264 160 290 l 160 632 b 221 625 178 626 197 625 z "},"¨":{"ha":488,"x_min":0,"x_max":0,"o":"m 325 1039 l 325 878 l 419 878 l 419 1039 z m 68 1039 l 68 878 l 163 878 l 163 1039 z "},"©":{"ha":1086,"x_min":0,"x_max":0,"o":"m 276 1014 b 78 808 144 1014 78 946 l 78 206 b 276 0 78 68 144 0 l 808 0 b 1008 203 940 0 1008 67 l 1008 808 b 808 1014 1008 946 940 1014 z m 140 801 b 283 947 140 900 189 947 l 801 947 b 944 801 896 947 944 900 l 944 210 b 801 65 944 114 896 65 l 283 65 b 140 213 189 65 140 114 z m 467 767 b 349 647 388 767 349 726 l 349 364 b 467 244 349 285 388 244 l 682 244 l 682 307 l 476 307 b 413 372 433 307 413 329 l 413 639 b 476 704 413 682 433 704 l 682 704 l 682 767 z "},"ª":{"ha":543,"x_min":0,"x_max":0,"o":"m 81 1014 l 81 947 l 336 947 b 408 871 385 947 408 922 l 408 642 b 336 567 408 592 385 567 l 197 567 b 135 631 156 567 135 588 l 135 704 b 189 751 135 736 153 751 l 360 751 l 360 810 l 172 810 b 68 714 103 810 68 778 l 68 626 b 189 506 68 546 108 506 l 346 506 b 476 639 432 506 476 550 l 476 879 b 346 1014 476 969 432 1014 z "},"«":{"ha":694,"x_min":0,"x_max":0,"o":"m 304 399 l 304 328 l 660 0 l 660 100 l 371 363 l 660 624 l 660 725 z m 35 399 l 35 328 l 390 0 l 390 100 l 101 363 l 390 624 l 390 725 z "},"¬":{"ha":908,"x_min":0,"x_max":0,"o":"m 68 608 l 68 519 l 753 519 l 753 111 l 840 111 l 840 608 z "},"­":{"ha":467,"x_min":0,"x_max":0,"o":"m 35 485 l 35 399 l 432 399 l 432 485 z "},"®":{"ha":1086,"x_min":0,"x_max":0,"o":"m 276 1014 b 78 808 144 1014 78 946 l 78 206 b 276 0 78 68 144 0 l 808 0 b 1008 203 940 0 1008 67 l 1008 808 b 808 1014 1008 946 940 1014 z m 140 801 b 283 947 140 900 189 947 l 801 947 b 944 801 896 947 944 900 l 944 210 b 801 65 944 114 896 65 l 283 65 b 140 213 189 65 140 114 z m 354 767 l 354 244 l 417 244 l 417 704 l 618 704 b 665 657 650 704 665 689 l 665 589 b 618 542 665 557 650 542 l 463 542 l 463 492 l 692 244 l 769 244 l 547 489 l 628 489 b 726 588 694 489 726 525 l 726 665 b 626 767 726 733 693 767 z "},"¯":{"ha":729,"x_min":0,"x_max":0,"o":"m 68 972 l 68 892 l 661 892 l 661 972 z "},"°":{"ha":594,"x_min":0,"x_max":0,"o":"m 214 1014 b 68 865 117 1014 68 964 l 68 629 b 214 481 68 531 117 481 l 379 481 b 526 629 476 481 526 531 l 526 865 b 379 1014 526 964 476 1014 z m 132 857 b 224 950 132 919 163 950 l 369 950 b 463 857 431 950 463 919 l 463 638 b 369 544 463 575 431 544 l 224 544 b 132 638 163 544 132 575 z "},"±":{"ha":908,"x_min":0,"x_max":0,"o":"m 411 1042 l 411 690 l 68 690 l 68 601 l 411 601 l 411 250 l 497 250 l 497 601 l 840 601 l 840 690 l 497 690 l 497 1042 z m 68 146 l 68 57 l 840 57 l 840 146 z "},"²":{"ha":500,"x_min":0,"x_max":0,"o":"m 69 1013 l 69 942 l 313 942 b 376 876 356 942 376 919 l 376 825 b 319 765 376 786 358 765 l 193 765 b 60 628 104 765 60 719 l 60 447 l 436 447 l 436 517 l 131 517 l 131 624 b 204 701 131 675 156 701 l 331 701 b 446 821 407 701 446 740 l 446 882 b 319 1013 446 969 404 1013 z "},"³":{"ha":468,"x_min":0,"x_max":0,"o":"m 49 1013 l 49 942 l 278 942 b 347 869 325 942 347 918 l 347 821 b 304 765 347 786 335 765 l 57 765 l 57 699 l 304 699 b 350 644 336 699 350 679 l 350 589 b 281 517 350 540 328 517 l 46 517 l 46 447 l 290 447 b 419 579 378 447 419 492 l 419 640 b 375 732 419 683 408 715 b 417 828 404 751 417 785 l 417 879 b 285 1013 417 968 374 1013 z "},"´":{"ha":547,"x_min":0,"x_max":0,"o":"m 331 1136 l 94 822 l 194 822 l 451 1136 z "},"¶":{"ha":763,"x_min":0,"x_max":0,"o":"m 254 1014 b 49 804 117 1014 49 944 l 49 660 b 254 449 49 519 117 449 l 525 449 l 525 535 l 264 535 b 140 661 182 535 140 578 l 140 799 b 264 924 140 882 182 924 l 585 924 l 585 -246 l 676 -246 l 676 1014 z "},"·":{"ha":238,"x_min":0,"x_max":0,"o":"m 68 526 l 68 365 l 169 365 l 169 526 z "},"¸":{"ha":418,"x_min":0,"x_max":0,"o":"m 183 -31 l 108 -285 l 188 -285 l 289 -31 z "},"¹":{"ha":293,"x_min":0,"x_max":0,"o":"m 33 1013 l 33 942 l 94 942 b 163 874 139 942 163 919 l 163 447 l 233 447 l 233 886 b 108 1013 233 971 192 1013 z "},"º":{"ha":557,"x_min":0,"x_max":0,"o":"m 197 1014 b 68 879 111 1014 68 968 l 68 639 b 197 506 68 550 111 506 l 360 506 b 489 639 446 506 489 550 l 489 879 b 360 1014 489 968 446 1014 z m 136 869 b 210 946 136 919 160 946 l 349 946 b 421 869 397 946 421 919 l 421 649 b 349 574 421 599 397 574 l 210 574 b 136 649 160 574 136 599 z "},"»":{"ha":694,"x_min":0,"x_max":0,"o":"m 660 326 l 660 397 l 304 725 l 304 625 l 593 361 l 304 101 l 304 0 z m 392 326 l 392 397 l 36 725 l 36 625 l 325 361 l 36 101 l 36 0 z "},"¼":{"ha":1075,"x_min":0,"x_max":0,"o":"m 739 1014 l 94 0 l 178 0 l 821 1014 z m 78 1013 l 78 942 l 139 942 b 207 874 183 942 207 919 l 207 447 l 278 447 l 278 886 b 153 1013 278 971 236 1013 z m 746 565 l 556 160 l 556 100 l 886 100 l 886 0 l 956 0 l 956 100 l 997 100 l 997 167 l 956 167 l 956 565 l 886 565 l 886 167 l 631 167 l 811 565 z "},"½":{"ha":1101,"x_min":0,"x_max":0,"o":"m 739 1014 l 94 0 l 178 0 l 821 1014 z m 78 1013 l 78 942 l 139 942 b 207 874 183 942 207 919 l 207 447 l 278 447 l 278 886 b 153 1013 278 971 236 1013 z m 649 565 l 649 494 l 892 494 b 956 429 935 494 956 472 l 956 378 b 899 318 956 339 938 318 l 772 318 b 639 181 683 318 639 272 l 639 0 l 1015 0 l 1015 69 l 710 69 l 710 176 b 783 254 710 228 735 254 l 910 254 b 1025 374 986 254 1025 293 l 1025 435 b 899 565 1025 522 983 565 z "},"¾":{"ha":1208,"x_min":0,"x_max":0,"o":"m 874 1014 l 229 0 l 313 0 l 956 1014 z m 879 565 l 689 160 l 689 100 l 1019 100 l 1019 0 l 1089 0 l 1089 100 l 1131 100 l 1131 167 l 1089 167 l 1089 565 l 1019 565 l 1019 167 l 764 167 l 944 565 z m 79 1013 l 79 942 l 308 942 b 378 869 356 942 378 918 l 378 821 b 335 765 378 786 365 765 l 88 765 l 88 699 l 335 699 b 381 644 367 699 381 679 l 381 589 b 311 517 381 540 358 517 l 76 517 l 76 447 l 321 447 b 450 579 408 447 450 492 l 450 640 b 406 732 450 683 439 715 b 447 828 435 751 447 785 l 447 879 b 315 1013 447 968 404 1013 z "},"¿":{"ha":696,"x_min":0,"x_max":0,"o":"m 663 -246 l 663 -146 l 253 -146 b 135 -21 175 -146 135 -104 l 135 83 b 240 197 135 160 171 197 l 385 197 b 524 339 478 197 524 244 l 524 494 l 422 494 l 422 357 b 353 282 422 307 399 282 l 214 282 b 36 89 96 282 36 218 l 36 -40 b 232 -246 36 -178 101 -246 z m 524 607 l 524 768 l 422 768 l 422 607 z "},"À":{"ha":981,"x_min":0,"x_max":0,"o":"m 319 344 l 282 247 l 747 247 l 847 0 l 965 0 l 543 1014 l 429 1014 l 17 0 l 126 0 l 485 894 l 708 344 z m 243 1382 l 500 1068 l 600 1068 l 363 1382 z "},"Á":{"ha":981,"x_min":0,"x_max":0,"o":"m 319 344 l 282 247 l 747 247 l 847 0 l 965 0 l 543 1014 l 429 1014 l 17 0 l 126 0 l 485 894 l 708 344 z m 615 1382 l 379 1068 l 479 1068 l 736 1382 z "},"Â":{"ha":981,"x_min":0,"x_max":0,"o":"m 319 344 l 282 247 l 747 247 l 847 0 l 965 0 l 543 1014 l 429 1014 l 17 0 l 126 0 l 485 894 l 708 344 z m 454 1382 l 232 1068 l 328 1068 l 493 1304 l 654 1068 l 749 1068 l 533 1382 z "},"Ã":{"ha":981,"x_min":0,"x_max":0,"o":"m 319 344 l 282 247 l 747 247 l 847 0 l 965 0 l 543 1014 l 429 1014 l 17 0 l 126 0 l 485 894 l 708 344 z m 194 1218 l 194 1138 l 788 1138 l 788 1218 z "},"Ä":{"ha":981,"x_min":0,"x_max":0,"o":"m 319 344 l 282 247 l 747 247 l 847 0 l 965 0 l 543 1014 l 429 1014 l 17 0 l 126 0 l 485 894 l 708 344 z m 569 1285 l 569 1124 l 664 1124 l 664 1285 z m 313 1285 l 313 1124 l 407 1124 l 407 1285 z "},"Å":{"ha":981,"x_min":0,"x_max":0,"o":"m 319 344 l 282 247 l 747 247 l 847 0 l 965 0 l 543 1014 l 429 1014 l 17 0 l 126 0 l 485 894 l 708 344 z m 432 1382 b 328 1288 363 1382 328 1350 l 328 1164 b 432 1068 328 1100 363 1068 l 544 1068 b 649 1164 614 1068 649 1100 l 649 1288 b 544 1382 649 1350 614 1382 z m 383 1279 b 442 1331 383 1313 403 1331 l 535 1331 b 593 1279 574 1331 593 1313 l 593 1172 b 535 1119 593 1138 574 1119 l 442 1119 b 383 1172 403 1119 383 1138 z "},"Æ":{"ha":1268,"x_min":0,"x_max":0,"o":"m 357 1014 l 17 0 l 125 0 l 421 910 l 572 910 l 572 344 l 293 344 l 261 247 l 572 247 l 572 0 l 1208 0 l 1208 104 l 678 104 l 678 465 l 1194 465 l 1194 565 l 678 565 l 678 910 l 1203 910 l 1203 1014 z "},"Ç":{"ha":788,"x_min":0,"x_max":0,"o":"m 304 1014 b 78 783 153 1014 78 938 l 78 231 b 304 0 78 76 153 0 l 724 0 l 724 104 l 324 104 b 183 247 231 104 183 151 l 183 767 b 324 910 183 863 231 910 l 724 910 l 724 1014 z m 396 -31 l 321 -285 l 400 -285 l 501 -31 z "},"È":{"ha":783,"x_min":0,"x_max":0,"o":"m 88 1014 l 88 0 l 724 0 l 724 104 l 193 104 l 193 465 l 710 465 l 710 565 l 193 565 l 193 910 l 718 910 l 718 1014 z m 158 1382 l 415 1068 l 515 1068 l 278 1382 z "},"É":{"ha":783,"x_min":0,"x_max":0,"o":"m 88 1014 l 88 0 l 724 0 l 724 104 l 193 104 l 193 465 l 710 465 l 710 565 l 193 565 l 193 910 l 718 910 l 718 1014 z m 529 1382 l 293 1068 l 393 1068 l 650 1382 z "},"Ê":{"ha":783,"x_min":0,"x_max":0,"o":"m 88 1014 l 88 0 l 724 0 l 724 104 l 193 104 l 193 465 l 710 465 l 710 565 l 193 565 l 193 910 l 718 910 l 718 1014 z m 368 1382 l 146 1068 l 242 1068 l 407 1304 l 568 1068 l 663 1068 l 447 1382 z "},"Ë":{"ha":783,"x_min":0,"x_max":0,"o":"m 88 1014 l 88 0 l 724 0 l 724 104 l 193 104 l 193 465 l 710 465 l 710 565 l 193 565 l 193 910 l 718 910 l 718 1014 z m 493 1285 l 493 1124 l 588 1124 l 588 1285 z m 236 1285 l 236 1124 l 331 1124 l 331 1285 z "},"Ì":{"ha":389,"x_min":0,"x_max":0,"o":"m 122 1014 l 122 0 l 228 0 l 228 1014 z m -43 1382 l 214 1068 l 314 1068 l 76 1382 z "},"Í":{"ha":389,"x_min":0,"x_max":0,"o":"m 106 1014 l 106 0 l 211 0 l 211 1014 z m 311 1382 l 75 1068 l 175 1068 l 432 1382 z "},"Î":{"ha":457,"x_min":0,"x_max":0,"o":"m 176 1014 l 176 0 l 282 0 l 282 1014 z m 192 1382 l -31 1068 l 65 1068 l 231 1304 l 392 1068 l 486 1068 l 271 1382 z "},"Ï":{"ha":374,"x_min":0,"x_max":0,"o":"m 135 1014 l 135 0 l 240 0 l 240 1014 z m 268 1285 l 268 1124 l 363 1124 l 363 1285 z m 11 1285 l 11 1124 l 106 1124 l 106 1285 z "},"Ð":{"ha":928,"x_min":0,"x_max":0,"o":"m 0 565 l 0 465 l 88 465 l 88 0 l 193 0 l 193 465 l 514 465 l 514 565 l 193 565 l 193 910 l 572 910 b 744 735 688 910 744 853 l 744 279 b 572 104 744 161 688 104 l 249 104 l 249 0 l 583 0 b 850 272 761 0 850 90 l 850 742 b 583 1014 850 924 761 1014 l 88 1014 l 88 565 z "},"Ñ":{"ha":949,"x_min":0,"x_max":0,"o":"m 88 1014 l 88 0 l 190 0 l 190 850 l 769 0 l 863 0 l 863 1014 l 760 1014 l 760 188 l 203 1014 z m 178 1218 l 178 1138 l 771 1138 l 771 1218 z "},"Ò":{"ha":929,"x_min":0,"x_max":0,"o":"m 304 1014 b 78 783 153 1014 78 938 l 78 231 b 304 0 78 76 153 0 l 626 0 b 853 231 776 0 853 76 l 853 783 b 626 1014 853 938 776 1014 z m 183 767 b 324 910 183 863 231 910 l 606 910 b 746 767 700 910 746 863 l 746 247 b 606 104 746 151 700 104 l 324 104 b 183 247 231 104 183 151 z m 218 1382 l 475 1068 l 575 1068 l 338 1382 z "},"Ó":{"ha":929,"x_min":0,"x_max":0,"o":"m 304 1014 b 78 783 153 1014 78 938 l 78 231 b 304 0 78 76 153 0 l 626 0 b 853 231 776 0 853 76 l 853 783 b 626 1014 853 938 776 1014 z m 183 767 b 324 910 183 863 231 910 l 606 910 b 746 767 700 910 746 863 l 746 247 b 606 104 746 151 700 104 l 324 104 b 183 247 231 104 183 151 z m 590 1382 l 354 1068 l 454 1068 l 711 1382 z "},"Ô":{"ha":929,"x_min":0,"x_max":0,"o":"m 304 1014 b 78 783 153 1014 78 938 l 78 231 b 304 0 78 76 153 0 l 626 0 b 853 231 776 0 853 76 l 853 783 b 626 1014 853 938 776 1014 z m 183 767 b 324 910 183 863 231 910 l 606 910 b 746 767 700 910 746 863 l 746 247 b 606 104 746 151 700 104 l 324 104 b 183 247 231 104 183 151 z m 428 1382 l 206 1068 l 301 1068 l 467 1304 l 628 1068 l 722 1068 l 507 1382 z "},"Õ":{"ha":929,"x_min":0,"x_max":0,"o":"m 304 1014 b 78 783 153 1014 78 938 l 78 231 b 304 0 78 76 153 0 l 626 0 b 853 231 776 0 853 76 l 853 783 b 626 1014 853 938 776 1014 z m 183 767 b 324 910 183 863 231 910 l 606 910 b 746 767 700 910 746 863 l 746 247 b 606 104 746 151 700 104 l 324 104 b 183 247 231 104 183 151 z m 168 1218 l 168 1138 l 761 1138 l 761 1218 z "},"Ö":{"ha":929,"x_min":0,"x_max":0,"o":"m 304 1014 b 78 783 153 1014 78 938 l 78 231 b 304 0 78 76 153 0 l 626 0 b 853 231 776 0 853 76 l 853 783 b 626 1014 853 938 776 1014 z m 183 767 b 324 910 183 863 231 910 l 606 910 b 746 767 700 910 746 863 l 746 247 b 606 104 746 151 700 104 l 324 104 b 183 247 231 104 183 151 z m 547 1285 l 547 1124 l 642 1124 l 642 1285 z m 290 1285 l 290 1124 l 385 1124 l 385 1285 z "},"×":{"ha":908,"x_min":0,"x_max":0,"o":"m 213 818 l 150 756 l 393 507 l 150 258 l 213 196 l 454 444 l 696 196 l 758 258 l 515 507 l 758 756 l 696 818 l 454 569 z "},"Ø":{"ha":929,"x_min":0,"x_max":0,"o":"m 781 1153 l 700 1006 b 626 1014 678 1011 653 1014 l 304 1014 b 78 783 153 1014 78 938 l 78 231 b 169 31 78 132 108 65 l 78 -139 l 150 -139 l 229 7 b 304 0 251 3 276 0 l 626 0 b 853 231 776 0 853 76 l 853 783 b 760 983 853 882 821 947 l 853 1153 z m 183 767 b 324 910 183 863 231 910 l 606 910 b 646 906 619 910 633 908 l 225 132 b 183 247 197 156 183 194 z m 746 767 l 746 247 b 606 104 746 151 700 104 l 324 104 b 283 107 308 104 296 106 l 704 881 b 746 767 732 857 746 818 z "},"Ù":{"ha":928,"x_min":0,"x_max":0,"o":"m 82 1014 l 82 231 b 308 0 82 76 157 0 l 619 0 b 846 231 769 0 846 76 l 846 1014 l 740 1014 l 740 247 b 599 104 740 151 693 104 l 328 104 b 188 247 235 104 188 151 l 188 1014 z m 217 1382 l 474 1068 l 574 1068 l 336 1382 z "},"Ú":{"ha":928,"x_min":0,"x_max":0,"o":"m 82 1014 l 82 231 b 308 0 82 76 157 0 l 619 0 b 846 231 769 0 846 76 l 846 1014 l 740 1014 l 740 247 b 599 104 740 151 693 104 l 328 104 b 188 247 235 104 188 151 l 188 1014 z m 588 1382 l 351 1068 l 451 1068 l 708 1382 z "},"Û":{"ha":928,"x_min":0,"x_max":0,"o":"m 82 1014 l 82 231 b 308 0 82 76 157 0 l 619 0 b 846 231 769 0 846 76 l 846 1014 l 740 1014 l 740 247 b 599 104 740 151 693 104 l 328 104 b 188 247 235 104 188 151 l 188 1014 z m 426 1382 l 204 1068 l 300 1068 l 465 1304 l 626 1068 l 721 1068 l 506 1382 z "},"Ü":{"ha":928,"x_min":0,"x_max":0,"o":"m 82 1014 l 82 231 b 308 0 82 76 157 0 l 619 0 b 846 231 769 0 846 76 l 846 1014 l 740 1014 l 740 247 b 599 104 740 151 693 104 l 328 104 b 188 247 235 104 188 151 l 188 1014 z m 550 1285 l 550 1124 l 644 1124 l 644 1285 z m 293 1285 l 293 1124 l 388 1124 l 388 1285 z "},"Ý":{"ha":906,"x_min":0,"x_max":0,"o":"m 14 1014 l 401 431 l 401 0 l 508 0 l 508 431 l 892 1014 l 774 1014 l 456 521 l 136 1014 z m 576 1382 l 340 1068 l 440 1068 l 697 1382 z "},"Þ":{"ha":879,"x_min":0,"x_max":0,"o":"m 88 1014 l 88 0 l 193 0 l 193 697 l 558 697 b 731 522 674 697 731 640 l 731 435 b 558 260 731 318 674 260 l 244 260 l 244 161 l 569 161 b 836 433 747 161 836 251 l 836 529 b 569 801 836 711 747 801 l 193 801 l 193 1014 z "},"ß":{"ha":1028,"x_min":0,"x_max":0,"o":"m 292 1024 b 88 815 154 1024 88 954 l 88 0 l 189 0 l 189 801 b 313 928 189 886 231 928 l 388 928 b 511 801 471 928 511 886 l 511 628 b 668 469 511 522 564 469 l 774 469 b 865 358 835 469 865 432 l 865 222 b 744 100 865 140 825 100 l 244 100 l 244 0 l 774 0 b 967 196 903 0 967 65 l 967 379 b 803 560 967 500 911 560 l 697 560 b 613 649 640 560 613 589 l 613 815 b 410 1024 613 954 544 1024 z "},"à":{"ha":824,"x_min":0,"x_max":0,"o":"m 94 725 l 94 626 l 508 626 b 646 483 600 626 646 578 l 646 235 b 504 88 646 136 599 88 l 283 88 b 169 199 208 88 169 125 l 169 232 b 282 328 169 296 207 328 l 590 328 l 590 410 l 256 410 b 72 249 132 410 72 356 l 72 192 b 265 0 72 64 136 0 l 521 0 b 747 232 671 0 747 78 l 747 493 b 521 725 747 647 671 725 z m 165 1136 l 422 822 l 522 822 l 285 1136 z "},"á":{"ha":824,"x_min":0,"x_max":0,"o":"m 94 725 l 94 626 l 508 626 b 646 483 600 626 646 578 l 646 235 b 504 88 646 136 599 88 l 283 88 b 169 199 208 88 169 125 l 169 232 b 282 328 169 296 207 328 l 590 328 l 590 410 l 256 410 b 72 249 132 410 72 356 l 72 192 b 265 0 72 64 136 0 l 521 0 b 747 232 671 0 747 78 l 747 493 b 521 725 747 647 671 725 z m 536 1136 l 300 822 l 400 822 l 657 1136 z "},"â":{"ha":824,"x_min":0,"x_max":0,"o":"m 94 725 l 94 626 l 508 626 b 646 483 600 626 646 578 l 646 235 b 504 88 646 136 599 88 l 283 88 b 169 199 208 88 169 125 l 169 232 b 282 328 169 296 207 328 l 590 328 l 590 410 l 256 410 b 72 249 132 410 72 356 l 72 192 b 265 0 72 64 136 0 l 521 0 b 747 232 671 0 747 78 l 747 493 b 521 725 747 647 671 725 z m 375 1136 l 153 822 l 249 822 l 414 1058 l 575 822 l 669 822 l 454 1136 z "},"ã":{"ha":824,"x_min":0,"x_max":0,"o":"m 94 725 l 94 626 l 508 626 b 646 483 600 626 646 578 l 646 235 b 504 88 646 136 599 88 l 283 88 b 169 199 208 88 169 125 l 169 232 b 282 328 169 296 207 328 l 590 328 l 590 410 l 256 410 b 72 249 132 410 72 356 l 72 192 b 265 0 72 64 136 0 l 521 0 b 747 232 671 0 747 78 l 747 493 b 521 725 747 647 671 725 z m 115 972 l 115 892 l 708 892 l 708 972 z "},"ä":{"ha":824,"x_min":0,"x_max":0,"o":"m 94 725 l 94 626 l 508 626 b 646 483 600 626 646 578 l 646 235 b 504 88 646 136 599 88 l 283 88 b 169 199 208 88 169 125 l 169 232 b 282 328 169 296 207 328 l 590 328 l 590 410 l 256 410 b 72 249 132 410 72 356 l 72 192 b 265 0 72 64 136 0 l 521 0 b 747 232 671 0 747 78 l 747 493 b 521 725 747 647 671 725 z m 488 1039 l 488 878 l 582 878 l 582 1039 z m 231 1039 l 231 878 l 325 878 l 325 1039 z "},"å":{"ha":824,"x_min":0,"x_max":0,"o":"m 94 725 l 94 626 l 508 626 b 646 483 600 626 646 578 l 646 235 b 504 88 646 136 599 88 l 283 88 b 169 199 208 88 169 125 l 169 232 b 282 328 169 296 207 328 l 590 328 l 590 410 l 256 410 b 72 249 132 410 72 356 l 72 192 b 265 0 72 64 136 0 l 521 0 b 747 232 671 0 747 78 l 747 493 b 521 725 747 647 671 725 z m 356 1136 b 251 1042 286 1136 251 1104 l 251 918 b 356 822 251 854 286 822 l 468 822 b 572 918 538 822 572 854 l 572 1042 b 468 1136 572 1104 538 1136 z m 307 1033 b 365 1085 307 1067 326 1085 l 458 1085 b 517 1033 497 1085 517 1067 l 517 926 b 458 874 517 892 497 874 l 365 874 b 307 926 326 874 307 892 z "},"æ":{"ha":1393,"x_min":0,"x_max":0,"o":"m 874 725 b 697 660 793 725 735 703 b 521 725 660 703 600 725 l 94 725 l 94 626 l 508 626 b 646 483 600 626 646 578 l 646 235 b 504 88 646 136 599 88 l 283 88 b 169 199 208 88 169 125 l 169 232 b 282 328 169 296 207 328 l 590 328 l 590 410 l 256 410 b 72 249 132 410 72 356 l 72 192 b 265 0 72 64 136 0 l 521 0 b 697 65 600 0 660 21 b 874 0 735 21 793 0 l 1299 0 l 1299 99 l 886 99 b 747 242 793 99 747 146 l 747 497 b 890 638 747 589 797 638 l 1110 638 b 1224 526 1186 638 1224 600 l 1224 493 b 1111 397 1224 429 1186 397 l 803 397 l 803 315 l 1139 315 b 1322 475 1261 315 1322 368 l 1322 533 b 1128 725 1322 661 1257 725 z "},"ç":{"ha":693,"x_min":0,"x_max":0,"o":"m 304 725 b 78 493 153 725 78 647 l 78 232 b 304 0 78 78 153 0 l 628 0 l 628 100 l 324 100 b 179 249 228 100 179 150 l 179 476 b 324 624 179 575 228 624 l 628 624 l 628 725 z m 349 -31 l 274 -285 l 353 -285 l 454 -31 z "},"è":{"ha":824,"x_min":0,"x_max":0,"o":"m 304 725 b 78 493 153 725 78 647 l 78 232 b 304 0 78 78 153 0 l 729 0 l 729 99 l 317 99 b 178 242 224 99 178 146 l 178 490 b 321 638 178 588 225 638 l 540 638 b 654 526 617 638 654 600 l 654 493 b 542 397 654 429 617 397 l 233 397 l 233 315 l 569 315 b 753 475 692 315 753 368 l 753 533 b 558 725 753 661 688 725 z m 172 1136 l 429 822 l 529 822 l 292 1136 z "},"é":{"ha":824,"x_min":0,"x_max":0,"o":"m 304 725 b 78 493 153 725 78 647 l 78 232 b 304 0 78 78 153 0 l 729 0 l 729 99 l 317 99 b 178 242 224 99 178 146 l 178 490 b 321 638 178 588 225 638 l 540 638 b 654 526 617 638 654 600 l 654 493 b 542 397 654 429 617 397 l 233 397 l 233 315 l 569 315 b 753 475 692 315 753 368 l 753 533 b 558 725 753 661 688 725 z m 544 1136 l 308 822 l 408 822 l 665 1136 z "},"ê":{"ha":824,"x_min":0,"x_max":0,"o":"m 304 725 b 78 493 153 725 78 647 l 78 232 b 304 0 78 78 153 0 l 729 0 l 729 99 l 317 99 b 178 242 224 99 178 146 l 178 490 b 321 638 178 588 225 638 l 540 638 b 654 526 617 638 654 600 l 654 493 b 542 397 654 429 617 397 l 233 397 l 233 315 l 569 315 b 753 475 692 315 753 368 l 753 533 b 558 725 753 661 688 725 z m 381 1136 l 158 822 l 254 822 l 419 1058 l 581 822 l 675 822 l 460 1136 z "},"ë":{"ha":824,"x_min":0,"x_max":0,"o":"m 304 725 b 78 493 153 725 78 647 l 78 232 b 304 0 78 78 153 0 l 729 0 l 729 99 l 317 99 b 178 242 224 99 178 146 l 178 490 b 321 638 178 588 225 638 l 540 638 b 654 526 617 638 654 600 l 654 493 b 542 397 654 429 617 397 l 233 397 l 233 315 l 569 315 b 753 475 692 315 753 368 l 753 533 b 558 725 753 661 688 725 z m 500 1039 l 500 878 l 594 878 l 594 1039 z m 243 1039 l 243 878 l 338 878 l 338 1039 z "},"ì":{"ha":385,"x_min":0,"x_max":0,"o":"m -25 1136 l 232 822 l 332 822 l 94 1136 z m 197 725 l 197 0 l 299 0 l 299 725 z "},"í":{"ha":385,"x_min":0,"x_max":0,"o":"m 289 1136 l 53 822 l 153 822 l 410 1136 z m 88 725 l 88 0 l 189 0 l 189 725 z "},"î":{"ha":486,"x_min":0,"x_max":0,"o":"m 192 725 l 192 0 l 293 0 l 293 725 z m 207 1136 l -15 822 l 81 822 l 246 1058 l 407 822 l 501 822 l 286 1136 z "},"ï":{"ha":390,"x_min":0,"x_max":0,"o":"m 276 1039 l 276 878 l 371 878 l 371 1039 z m 19 1039 l 19 878 l 114 878 l 114 1039 z m 146 725 l 146 0 l 247 0 l 247 725 z "},"ð":{"ha":851,"x_min":0,"x_max":0,"o":"m 253 871 l 253 817 l 643 817 b 668 689 660 778 668 735 l 668 249 b 524 100 668 150 619 100 l 324 100 b 179 249 228 100 179 150 l 179 439 b 324 588 179 538 228 588 l 613 588 l 613 688 l 304 688 b 78 456 153 688 78 610 l 78 232 b 304 0 78 78 153 0 l 543 0 b 769 232 694 0 769 78 l 769 689 b 750 817 769 735 763 778 l 851 817 l 851 871 l 725 871 b 528 1024 682 949 611 1001 l 371 1024 b 614 871 483 992 565 940 z "},"ñ":{"ha":861,"x_min":0,"x_max":0,"o":"m 88 725 l 88 0 l 189 0 l 189 624 l 533 624 b 678 476 629 624 678 575 l 678 0 l 779 0 l 779 493 b 553 725 779 647 704 725 z m 133 972 l 133 892 l 726 892 l 726 972 z "},"ò":{"ha":854,"x_min":0,"x_max":0,"o":"m 304 725 b 78 493 153 725 78 647 l 78 232 b 304 0 78 78 153 0 l 550 0 b 776 232 700 0 776 78 l 776 493 b 550 725 776 647 700 725 z m 179 476 b 324 624 179 575 228 624 l 531 624 b 675 476 626 624 675 575 l 675 249 b 531 100 675 150 626 100 l 324 100 b 179 249 228 100 179 150 z m 179 1136 l 436 822 l 536 822 l 299 1136 z "},"ó":{"ha":854,"x_min":0,"x_max":0,"o":"m 304 725 b 78 493 153 725 78 647 l 78 232 b 304 0 78 78 153 0 l 550 0 b 776 232 700 0 776 78 l 776 493 b 550 725 776 647 700 725 z m 179 476 b 324 624 179 575 228 624 l 531 624 b 675 476 626 624 675 575 l 675 249 b 531 100 675 150 626 100 l 324 100 b 179 249 228 100 179 150 z m 551 1136 l 315 822 l 415 822 l 672 1136 z "},"ô":{"ha":854,"x_min":0,"x_max":0,"o":"m 304 725 b 78 493 153 725 78 647 l 78 232 b 304 0 78 78 153 0 l 550 0 b 776 232 700 0 776 78 l 776 493 b 550 725 776 647 700 725 z m 179 476 b 324 624 179 575 228 624 l 531 624 b 675 476 626 624 675 575 l 675 249 b 531 100 675 150 626 100 l 324 100 b 179 249 228 100 179 150 z m 390 1136 l 168 822 l 264 822 l 429 1058 l 590 822 l 685 822 l 469 1136 z "},"õ":{"ha":854,"x_min":0,"x_max":0,"o":"m 304 725 b 78 493 153 725 78 647 l 78 232 b 304 0 78 78 153 0 l 550 0 b 776 232 700 0 776 78 l 776 493 b 550 725 776 647 700 725 z m 179 476 b 324 624 179 575 228 624 l 531 624 b 675 476 626 624 675 575 l 675 249 b 531 100 675 150 626 100 l 324 100 b 179 249 228 100 179 150 z m 131 972 l 131 892 l 724 892 l 724 972 z "},"ö":{"ha":854,"x_min":0,"x_max":0,"o":"m 304 725 b 78 493 153 725 78 647 l 78 232 b 304 0 78 78 153 0 l 550 0 b 776 232 700 0 776 78 l 776 493 b 550 725 776 647 700 725 z m 179 476 b 324 624 179 575 228 624 l 531 624 b 675 476 626 624 675 575 l 675 249 b 531 100 675 150 626 100 l 324 100 b 179 249 228 100 179 150 z m 508 1039 l 508 878 l 603 878 l 603 1039 z m 251 1039 l 251 878 l 346 878 l 346 1039 z "},"÷":{"ha":908,"x_min":0,"x_max":0,"o":"m 68 551 l 68 463 l 840 463 l 840 551 z m 404 274 l 404 113 l 506 113 l 506 274 z m 404 907 l 404 746 l 506 746 l 506 907 z "},"ø":{"ha":854,"x_min":0,"x_max":0,"o":"m 701 907 l 592 722 b 550 725 578 724 564 725 l 304 725 b 78 493 153 725 78 647 l 78 232 b 175 26 78 131 110 61 l 76 -139 l 150 -139 l 236 6 b 304 0 257 1 279 0 l 550 0 b 776 232 700 0 776 78 l 776 493 b 656 707 776 604 736 676 l 775 907 z m 675 476 l 675 249 b 531 100 675 150 626 100 l 324 100 b 293 101 313 100 303 100 l 599 613 b 675 476 650 593 675 547 z m 179 476 b 324 624 179 575 228 624 l 531 624 l 532 624 l 232 122 b 179 249 197 146 179 189 z "},"ù":{"ha":851,"x_min":0,"x_max":0,"o":"m 82 724 l 82 232 b 308 0 82 78 157 0 l 543 0 b 769 232 693 0 769 78 l 769 724 l 669 724 l 669 249 b 525 100 669 150 621 100 l 326 100 b 183 249 232 100 183 150 l 183 724 z m 178 1136 l 435 822 l 535 822 l 297 1136 z "},"ú":{"ha":851,"x_min":0,"x_max":0,"o":"m 82 724 l 82 232 b 308 0 82 78 157 0 l 543 0 b 769 232 693 0 769 78 l 769 724 l 669 724 l 669 249 b 525 100 669 150 621 100 l 326 100 b 183 249 232 100 183 150 l 183 724 z m 550 1136 l 314 822 l 414 822 l 671 1136 z "},"û":{"ha":851,"x_min":0,"x_max":0,"o":"m 82 724 l 82 232 b 308 0 82 78 157 0 l 543 0 b 769 232 693 0 769 78 l 769 724 l 669 724 l 669 249 b 525 100 669 150 621 100 l 326 100 b 183 249 232 100 183 150 l 183 724 z m 388 1136 l 165 822 l 261 822 l 426 1058 l 588 822 l 682 822 l 467 1136 z "},"ü":{"ha":851,"x_min":0,"x_max":0,"o":"m 82 724 l 82 232 b 308 0 82 78 157 0 l 543 0 b 769 232 693 0 769 78 l 769 724 l 669 724 l 669 249 b 525 100 669 150 621 100 l 326 100 b 183 249 232 100 183 150 l 183 724 z m 507 1039 l 507 878 l 601 878 l 601 1039 z m 250 1039 l 250 878 l 344 878 l 344 1039 z "},"ý":{"ha":861,"x_min":0,"x_max":0,"o":"m 82 725 l 82 263 b 308 44 82 117 157 44 l 672 44 l 672 11 b 528 -147 672 -94 624 -147 l 215 -147 l 215 -246 l 547 -246 b 774 0 699 -246 774 -164 l 774 725 l 672 725 l 672 139 l 326 139 b 183 278 232 139 183 185 l 183 725 z m 556 1136 l 319 822 l 419 822 l 676 1136 z "},"þ":{"ha":857,"x_min":0,"x_max":0,"o":"m 88 1024 l 88 -246 l 189 -246 l 189 0 l 553 0 b 779 232 704 0 779 78 l 779 492 b 553 724 779 646 704 724 l 244 724 l 244 622 l 533 622 b 678 474 629 622 678 572 l 678 249 b 533 100 678 150 629 100 l 189 100 l 189 1024 z "},"ÿ":{"ha":861,"x_min":0,"x_max":0,"o":"m 82 725 l 82 263 b 308 44 82 117 157 44 l 672 44 l 672 11 b 528 -147 672 -94 624 -147 l 215 -147 l 215 -246 l 547 -246 b 774 0 699 -246 774 -164 l 774 725 l 672 725 l 672 139 l 326 139 b 183 278 232 139 183 185 l 183 725 z m 517 1039 l 517 878 l 611 878 l 611 1039 z m 260 1039 l 260 878 l 354 878 l 354 1039 z "},"Ā":{"ha":981,"x_min":0,"x_max":0,"o":"m 319 344 l 282 247 l 747 247 l 847 0 l 965 0 l 543 1014 l 429 1014 l 17 0 l 126 0 l 485 894 l 708 344 z m 194 1218 l 194 1138 l 788 1138 l 788 1218 z "},"ā":{"ha":824,"x_min":0,"x_max":0,"o":"m 94 725 l 94 626 l 508 626 b 646 483 600 626 646 578 l 646 235 b 504 88 646 136 599 88 l 283 88 b 169 199 208 88 169 125 l 169 232 b 282 328 169 296 207 328 l 590 328 l 590 410 l 256 410 b 72 249 132 410 72 356 l 72 192 b 265 0 72 64 136 0 l 521 0 b 747 232 671 0 747 78 l 747 493 b 521 725 747 647 671 725 z m 115 972 l 115 892 l 708 892 l 708 972 z "},"Ă":{"ha":981,"x_min":0,"x_max":0,"o":"m 319 344 l 282 247 l 747 247 l 847 0 l 965 0 l 543 1014 l 429 1014 l 17 0 l 126 0 l 485 894 l 708 344 z m 233 1382 b 488 1068 235 1174 317 1068 b 743 1382 660 1068 742 1174 l 667 1382 b 488 1133 664 1214 604 1133 b 310 1382 371 1133 313 1214 z "},"ă":{"ha":824,"x_min":0,"x_max":0,"o":"m 94 725 l 94 626 l 508 626 b 646 483 600 626 646 578 l 646 235 b 504 88 646 136 599 88 l 283 88 b 169 199 208 88 169 125 l 169 232 b 282 328 169 296 207 328 l 590 328 l 590 410 l 256 410 b 72 249 132 410 72 356 l 72 192 b 265 0 72 64 136 0 l 521 0 b 747 232 671 0 747 78 l 747 493 b 521 725 747 647 671 725 z m 156 1136 b 410 822 157 928 239 822 b 665 1136 582 822 664 928 l 589 1136 b 410 888 586 968 526 888 b 232 1136 293 888 235 968 z "},"Ą":{"ha":981,"x_min":0,"x_max":0,"o":"m 319 344 l 282 247 l 747 247 l 847 0 l 901 0 l 763 -49 b 686 -143 707 -68 686 -94 l 686 -185 b 793 -285 686 -251 721 -285 l 965 -285 l 965 -207 l 846 -207 b 781 -150 801 -207 781 -187 l 781 -121 b 831 -58 781 -93 796 -74 l 965 0 l 543 1014 l 429 1014 l 17 0 l 126 0 l 485 894 l 708 344 z "},"ą":{"ha":824,"x_min":0,"x_max":0,"o":"m 351 -49 b 275 -143 296 -68 275 -94 l 275 -185 b 382 -285 275 -251 310 -285 l 554 -285 l 554 -207 l 435 -207 b 369 -150 390 -207 369 -187 l 369 -121 b 419 -58 369 -93 385 -74 l 557 1 b 747 232 683 13 747 90 l 747 493 b 521 725 747 647 671 725 l 94 725 l 94 626 l 508 626 b 646 483 600 626 646 578 l 646 235 b 504 88 646 136 599 88 l 283 88 b 169 199 208 88 169 125 l 169 232 b 282 328 169 296 207 328 l 590 328 l 590 410 l 256 410 b 72 249 132 410 72 356 l 72 192 b 265 0 72 64 136 0 l 490 0 z "},"Ć":{"ha":788,"x_min":0,"x_max":0,"o":"m 304 1014 b 78 783 153 1014 78 938 l 78 231 b 304 0 78 76 153 0 l 724 0 l 724 104 l 324 104 b 183 247 231 104 183 151 l 183 767 b 324 910 183 863 231 910 l 724 910 l 724 1014 z m 560 1382 l 324 1068 l 424 1068 l 681 1382 z "},"ć":{"ha":693,"x_min":0,"x_max":0,"o":"m 304 725 b 78 493 153 725 78 647 l 78 232 b 304 0 78 78 153 0 l 628 0 l 628 100 l 324 100 b 179 249 228 100 179 150 l 179 476 b 324 624 179 575 228 624 l 628 624 l 628 725 z m 513 1136 l 276 822 l 376 822 l 633 1136 z "},"Ċ":{"ha":788,"x_min":0,"x_max":0,"o":"m 304 1014 b 78 783 153 1014 78 938 l 78 231 b 304 0 78 76 153 0 l 724 0 l 724 104 l 324 104 b 183 247 231 104 183 151 l 183 767 b 324 910 183 863 231 910 l 724 910 l 724 1014 z m 394 1285 l 394 1124 l 489 1124 l 489 1285 z "},"ċ":{"ha":693,"x_min":0,"x_max":0,"o":"m 304 725 b 78 493 153 725 78 647 l 78 232 b 304 0 78 78 153 0 l 628 0 l 628 100 l 324 100 b 179 249 228 100 179 150 l 179 476 b 324 624 179 575 228 624 l 628 624 l 628 725 z m 347 1039 l 347 878 l 442 878 l 442 1039 z "},"Č":{"ha":788,"x_min":0,"x_max":0,"o":"m 304 1014 b 78 783 153 1014 78 938 l 78 231 b 304 0 78 76 153 0 l 724 0 l 724 104 l 324 104 b 183 247 231 104 183 151 l 183 767 b 324 910 183 863 231 910 l 724 910 l 724 1014 z m 175 1382 l 392 1068 l 471 1068 l 692 1382 l 597 1382 l 432 1146 l 271 1382 z "},"č":{"ha":693,"x_min":0,"x_max":0,"o":"m 304 725 b 78 493 153 725 78 647 l 78 232 b 304 0 78 78 153 0 l 628 0 l 628 100 l 324 100 b 179 249 228 100 179 150 l 179 476 b 324 624 179 575 228 624 l 628 624 l 628 725 z m 132 1136 l 349 822 l 428 822 l 649 1136 l 554 1136 l 389 900 l 228 1136 z "},"Ď":{"ha":928,"x_min":0,"x_max":0,"o":"m 88 1014 l 88 0 l 193 0 l 193 910 l 572 910 b 744 735 688 910 744 853 l 744 279 b 572 104 744 161 688 104 l 249 104 l 249 0 l 583 0 b 850 272 761 0 850 90 l 850 742 b 583 1014 850 924 761 1014 z m 176 1382 l 393 1068 l 472 1068 l 693 1382 l 599 1382 l 433 1146 l 272 1382 z "},"ď":{"ha":986,"x_min":0,"x_max":0,"o":"m 668 1024 l 668 249 b 524 100 668 150 619 100 l 324 100 b 179 249 228 100 179 150 l 179 476 b 324 624 179 575 228 624 l 613 624 l 613 725 l 304 725 b 78 493 153 725 78 647 l 78 232 b 304 0 78 78 153 0 l 543 0 b 769 232 694 0 769 78 l 769 1024 z m 913 1024 l 838 769 l 917 769 l 1018 1024 z "},"Đ":{"ha":928,"x_min":0,"x_max":0,"o":"m 0 565 l 0 465 l 88 465 l 88 0 l 193 0 l 193 465 l 514 465 l 514 565 l 193 565 l 193 910 l 572 910 b 744 735 688 910 744 853 l 744 279 b 572 104 744 161 688 104 l 249 104 l 249 0 l 583 0 b 850 272 761 0 850 90 l 850 742 b 583 1014 850 924 761 1014 l 88 1014 l 88 565 z "},"đ":{"ha":851,"x_min":0,"x_max":0,"o":"m 258 903 l 258 822 l 668 822 l 668 249 b 524 100 668 150 619 100 l 324 100 b 179 249 228 100 179 150 l 179 476 b 324 624 179 575 228 624 l 613 624 l 613 725 l 304 725 b 78 493 153 725 78 647 l 78 232 b 304 0 78 78 153 0 l 543 0 b 769 232 694 0 769 78 l 769 822 l 851 822 l 851 903 l 769 903 l 769 1024 l 668 1024 l 668 903 z "},"Ē":{"ha":783,"x_min":0,"x_max":0,"o":"m 88 1014 l 88 0 l 724 0 l 724 104 l 193 104 l 193 465 l 710 465 l 710 565 l 193 565 l 193 910 l 718 910 l 718 1014 z m 106 1218 l 106 1138 l 699 1138 l 699 1218 z "},"ē":{"ha":824,"x_min":0,"x_max":0,"o":"m 304 725 b 78 493 153 725 78 647 l 78 232 b 304 0 78 78 153 0 l 729 0 l 729 99 l 317 99 b 178 242 224 99 178 146 l 178 490 b 321 638 178 588 225 638 l 540 638 b 654 526 617 638 654 600 l 654 493 b 542 397 654 429 617 397 l 233 397 l 233 315 l 569 315 b 753 475 692 315 753 368 l 753 533 b 558 725 753 661 688 725 z m 122 972 l 122 892 l 715 892 l 715 972 z "},"Ĕ":{"ha":783,"x_min":0,"x_max":0,"o":"m 88 1014 l 88 0 l 724 0 l 724 104 l 193 104 l 193 465 l 710 465 l 710 565 l 193 565 l 193 910 l 718 910 l 718 1014 z m 149 1382 b 403 1068 150 1174 232 1068 b 658 1382 575 1068 657 1174 l 582 1382 b 403 1133 579 1214 519 1133 b 225 1382 286 1133 228 1214 z "},"ĕ":{"ha":824,"x_min":0,"x_max":0,"o":"m 304 725 b 78 493 153 725 78 647 l 78 232 b 304 0 78 78 153 0 l 729 0 l 729 99 l 317 99 b 178 242 224 99 178 146 l 178 490 b 321 638 178 588 225 638 l 540 638 b 654 526 617 638 654 600 l 654 493 b 542 397 654 429 617 397 l 233 397 l 233 315 l 569 315 b 753 475 692 315 753 368 l 753 533 b 558 725 753 661 688 725 z m 163 1136 b 417 822 164 928 246 822 b 672 1136 589 822 671 928 l 596 1136 b 417 888 593 968 533 888 b 239 1136 300 888 242 968 z "},"Ė":{"ha":783,"x_min":0,"x_max":0,"o":"m 88 1014 l 88 0 l 724 0 l 724 104 l 193 104 l 193 465 l 710 465 l 710 565 l 193 565 l 193 910 l 718 910 l 718 1014 z m 361 1285 l 361 1124 l 456 1124 l 456 1285 z "},"ė":{"ha":824,"x_min":0,"x_max":0,"o":"m 304 725 b 78 493 153 725 78 647 l 78 232 b 304 0 78 78 153 0 l 729 0 l 729 99 l 317 99 b 178 242 224 99 178 146 l 178 490 b 321 638 178 588 225 638 l 540 638 b 654 526 617 638 654 600 l 654 493 b 542 397 654 429 617 397 l 233 397 l 233 315 l 569 315 b 753 475 692 315 753 368 l 753 533 b 558 725 753 661 688 725 z m 378 1039 l 378 878 l 472 878 l 472 1039 z "},"Ę":{"ha":783,"x_min":0,"x_max":0,"o":"m 521 -49 b 444 -143 465 -68 444 -94 l 444 -185 b 551 -285 444 -251 479 -285 l 724 -285 l 724 -207 l 604 -207 b 539 -150 560 -207 539 -187 l 539 -121 b 589 -58 539 -93 554 -74 l 724 0 l 724 104 l 193 104 l 193 465 l 710 465 l 710 565 l 193 565 l 193 910 l 718 910 l 718 1014 l 88 1014 l 88 0 l 660 0 z "},"ę":{"ha":824,"x_min":0,"x_max":0,"o":"m 526 -49 b 450 -143 471 -68 450 -94 l 450 -185 b 557 -285 450 -251 485 -285 l 729 -285 l 729 -207 l 610 -207 b 544 -150 565 -207 544 -187 l 544 -121 b 594 -58 544 -93 560 -74 l 729 0 l 729 99 l 317 99 b 178 242 224 99 178 146 l 178 490 b 321 638 178 588 225 638 l 540 638 b 654 526 617 638 654 600 l 654 493 b 542 397 654 429 617 397 l 233 397 l 233 315 l 569 315 b 753 475 692 315 753 368 l 753 533 b 558 725 753 661 688 725 l 304 725 b 78 493 153 725 78 647 l 78 232 b 304 0 78 78 153 0 l 665 0 z "},"Ě":{"ha":783,"x_min":0,"x_max":0,"o":"m 88 1014 l 88 0 l 724 0 l 724 104 l 193 104 l 193 465 l 710 465 l 710 565 l 193 565 l 193 910 l 718 910 l 718 1014 z m 146 1382 l 363 1068 l 442 1068 l 663 1382 l 568 1382 l 403 1146 l 242 1382 z "},"ě":{"ha":824,"x_min":0,"x_max":0,"o":"m 304 725 b 78 493 153 725 78 647 l 78 232 b 304 0 78 78 153 0 l 729 0 l 729 99 l 317 99 b 178 242 224 99 178 146 l 178 490 b 321 638 178 588 225 638 l 540 638 b 654 526 617 638 654 600 l 654 493 b 542 397 654 429 617 397 l 233 397 l 233 315 l 569 315 b 753 475 692 315 753 368 l 753 533 b 558 725 753 661 688 725 z m 153 1136 l 369 822 l 449 822 l 669 1136 l 575 1136 l 410 900 l 249 1136 z "},"Ğ":{"ha":899,"x_min":0,"x_max":0,"o":"m 304 1014 b 78 783 153 1014 78 938 l 78 231 b 304 0 78 76 153 0 l 617 0 b 821 206 753 0 821 68 l 821 576 l 435 576 l 435 483 l 722 483 l 722 231 b 596 104 722 146 681 104 l 324 104 b 183 247 231 104 183 151 l 183 767 b 324 910 183 863 231 910 l 797 910 l 797 1014 z m 192 1382 b 446 1068 193 1174 275 1068 b 701 1382 618 1068 700 1174 l 625 1382 b 446 1133 622 1214 563 1133 b 268 1382 329 1133 271 1214 z "},"ğ":{"ha":849,"x_min":0,"x_max":0,"o":"m 304 725 b 78 493 153 725 78 647 l 78 263 b 304 44 78 117 153 44 l 613 44 l 613 139 l 324 139 b 179 278 228 139 179 185 l 179 476 b 324 624 179 575 228 624 l 524 624 b 668 476 619 624 668 575 l 668 11 b 524 -147 668 -94 619 -147 l 211 -147 l 211 -246 l 543 -246 b 769 0 694 -246 769 -164 l 769 493 b 543 725 769 647 694 725 z m 168 1136 b 422 822 169 928 251 822 b 678 1136 594 822 676 928 l 601 1136 b 422 888 599 968 539 888 b 244 1136 306 888 247 968 z "},"Ġ":{"ha":899,"x_min":0,"x_max":0,"o":"m 304 1014 b 78 783 153 1014 78 938 l 78 231 b 304 0 78 76 153 0 l 617 0 b 821 206 753 0 821 68 l 821 576 l 435 576 l 435 483 l 722 483 l 722 231 b 596 104 722 146 681 104 l 324 104 b 183 247 231 104 183 151 l 183 767 b 324 910 183 863 231 910 l 797 910 l 797 1014 z m 406 1285 l 406 1124 l 500 1124 l 500 1285 z "},"ġ":{"ha":849,"x_min":0,"x_max":0,"o":"m 304 725 b 78 493 153 725 78 647 l 78 263 b 304 44 78 117 153 44 l 613 44 l 613 139 l 324 139 b 179 278 228 139 179 185 l 179 476 b 324 624 179 575 228 624 l 524 624 b 668 476 619 624 668 575 l 668 11 b 524 -147 668 -94 619 -147 l 211 -147 l 211 -246 l 543 -246 b 769 0 694 -246 769 -164 l 769 493 b 543 725 769 647 694 725 z m 381 1039 l 381 878 l 475 878 l 475 1039 z "},"Ģ":{"ha":899,"x_min":0,"x_max":0,"o":"m 304 1014 b 78 783 153 1014 78 938 l 78 231 b 304 0 78 76 153 0 l 617 0 b 821 206 753 0 821 68 l 821 576 l 435 576 l 435 483 l 722 483 l 722 231 b 596 104 722 146 681 104 l 324 104 b 183 247 231 104 183 151 l 183 767 b 324 910 183 863 231 910 l 797 910 l 797 1014 z m 424 -31 l 349 -285 l 428 -285 l 529 -31 z "},"ģ":{"ha":849,"x_min":0,"x_max":0,"o":"m 304 725 b 78 493 153 725 78 647 l 78 263 b 304 44 78 117 153 44 l 613 44 l 613 139 l 324 139 b 179 278 228 139 179 185 l 179 476 b 324 624 179 575 228 624 l 524 624 b 668 476 619 624 668 575 l 668 11 b 524 -147 668 -94 619 -147 l 211 -147 l 211 -246 l 543 -246 b 769 0 694 -246 769 -164 l 769 493 b 543 725 769 647 694 725 z m 454 1036 l 379 782 l 458 782 l 560 1036 z "},"Ħ":{"ha":900,"x_min":0,"x_max":0,"o":"m 0 871 l 0 790 l 88 790 l 88 0 l 193 0 l 193 472 l 707 472 l 707 0 l 813 0 l 813 790 l 900 790 l 900 871 l 813 871 l 813 1014 l 707 1014 l 707 871 l 193 871 l 193 1014 l 88 1014 l 88 871 z m 193 571 l 193 790 l 707 790 l 707 571 z "},"ħ":{"ha":861,"x_min":0,"x_max":0,"o":"m 0 903 l 0 822 l 88 822 l 88 0 l 189 0 l 189 624 l 533 624 b 678 476 629 624 678 575 l 678 0 l 779 0 l 779 493 b 553 725 779 647 704 725 l 189 725 l 189 822 l 593 822 l 593 903 l 189 903 l 189 1024 l 88 1024 l 88 903 z "},"Ī":{"ha":531,"x_min":0,"x_max":0,"o":"m 213 1014 l 213 0 l 318 0 l 318 1014 z m -31 1218 l -31 1138 l 563 1138 l 563 1218 z "},"ī":{"ha":568,"x_min":0,"x_max":0,"o":"m -12 972 l -12 892 l 581 892 l 581 972 z m 235 725 l 235 0 l 336 0 l 336 725 z "},"Ĭ":{"ha":406,"x_min":0,"x_max":0,"o":"m 151 1014 l 151 0 l 257 0 l 257 1014 z m -51 1382 b 203 1068 -50 1174 32 1068 b 458 1382 375 1068 457 1174 l 382 1382 b 203 1133 379 1214 319 1133 b 25 1382 86 1133 28 1214 z "},"ĭ":{"ha":472,"x_min":0,"x_max":0,"o":"m -19 1136 b 235 822 -18 928 64 822 b 490 1136 407 822 489 928 l 414 1136 b 235 888 411 968 351 888 b 57 1136 118 888 60 968 z m 186 725 l 186 0 l 288 0 l 288 725 z "},"Į":{"ha":350,"x_min":0,"x_max":0,"o":"m 60 -49 b -17 -143 4 -68 -17 -94 l -17 -185 b 90 -285 -17 -251 18 -285 l 263 -285 l 263 -207 l 143 -207 b 78 -150 99 -207 78 -187 l 78 -121 b 128 -58 78 -93 93 -74 l 263 0 l 263 1014 l 157 1014 l 157 0 l 199 0 z "},"į":{"ha":308,"x_min":0,"x_max":0,"o":"m 19 -49 b -57 -143 -36 -68 -57 -94 l -57 -185 b 50 -285 -57 -251 -22 -285 l 222 -285 l 222 -207 l 103 -207 b 38 -150 58 -207 38 -187 l 38 -121 b 88 -58 38 -93 53 -74 l 222 0 l 222 718 l 121 718 l 121 0 l 158 0 z m 121 1024 l 121 863 l 222 863 l 222 1024 z "},"İ":{"ha":279,"x_min":0,"x_max":0,"o":"m 88 1014 l 88 0 l 193 0 l 193 1014 z m 93 1285 l 93 1124 l 188 1124 l 188 1285 z "},"ı":{"ha":275,"x_min":0,"x_max":0,"o":"m 88 725 l 88 0 l 189 0 l 189 725 z "},"Ĳ":{"ha":929,"x_min":0,"x_max":0,"o":"m 131 1014 l 131 0 l 236 0 l 236 1014 z m 742 1014 l 742 247 b 601 104 742 151 694 104 l 335 104 l 335 0 l 621 0 b 847 231 771 0 847 76 l 847 1014 z "},"ĳ":{"ha":538,"x_min":0,"x_max":0,"o":"m 88 718 l 88 0 l 189 0 l 189 718 z m 88 1024 l 88 863 l 189 863 l 189 1024 z m 349 718 l 349 -25 b 239 -147 349 -106 311 -147 l 193 -147 l 193 -246 l 258 -246 b 450 -36 386 -246 450 -175 l 450 718 z m 349 1024 l 349 863 l 450 863 l 450 1024 z "},"Ķ":{"ha":889,"x_min":0,"x_max":0,"o":"m 88 1014 l 88 0 l 193 0 l 193 450 l 600 450 b 722 325 682 450 722 408 l 722 0 l 828 0 l 828 342 b 635 539 828 472 764 539 l 322 539 l 775 1014 l 650 1014 l 197 526 l 193 526 l 193 1014 z m 410 -31 l 335 -285 l 414 -285 l 515 -31 z "},"ķ":{"ha":813,"x_min":0,"x_max":0,"o":"m 88 1024 l 88 0 l 189 0 l 189 332 l 522 332 b 650 203 607 332 650 289 l 650 0 l 751 0 l 751 221 b 565 407 751 344 689 407 l 322 407 l 660 725 l 542 725 l 194 393 l 189 393 l 189 1024 z m 369 -31 l 294 -285 l 374 -285 l 475 -31 z "},"Ĺ":{"ha":747,"x_min":0,"x_max":0,"o":"m 88 1014 l 88 0 l 711 0 l 711 104 l 193 104 l 193 1014 z m 357 1382 l 121 1068 l 221 1068 l 478 1382 z "},"ĺ":{"ha":369,"x_min":0,"x_max":0,"o":"m 79 1024 l 79 0 l 181 0 l 181 1024 z m 289 1382 l 53 1068 l 153 1068 l 410 1382 z "},"Ļ":{"ha":747,"x_min":0,"x_max":0,"o":"m 88 1014 l 88 0 l 711 0 l 711 104 l 193 104 l 193 1014 z m 347 -31 l 272 -285 l 351 -285 l 453 -31 z "},"ļ":{"ha":275,"x_min":0,"x_max":0,"o":"m 88 1024 l 88 0 l 189 0 l 189 1024 z m 83 -31 l 8 -285 l 88 -285 l 189 -31 z "},"Ľ":{"ha":747,"x_min":0,"x_max":0,"o":"m 88 1014 l 88 0 l 711 0 l 711 104 l 193 104 l 193 1014 z m 493 1014 l 418 760 l 497 760 l 599 1014 z "},"ľ":{"ha":404,"x_min":0,"x_max":0,"o":"m 88 1024 l 88 0 l 189 0 l 189 1024 z m 331 1024 l 256 769 l 335 769 l 436 1024 z "},"Ŀ":{"ha":747,"x_min":0,"x_max":0,"o":"m 88 1014 l 88 0 l 711 0 l 711 104 l 193 104 l 193 1014 z m 419 603 l 419 442 l 514 442 l 514 603 z "},"ŀ":{"ha":358,"x_min":0,"x_max":0,"o":"m 88 1024 l 88 0 l 189 0 l 189 1024 z m 268 603 l 268 442 l 363 442 l 363 603 z "},"Ł":{"ha":747,"x_min":0,"x_max":0,"o":"m 0 469 l 0 382 l 88 440 l 88 0 l 711 0 l 711 104 l 193 104 l 193 511 l 574 765 l 574 854 l 193 599 l 193 1014 l 88 1014 l 88 528 z "},"ł":{"ha":438,"x_min":0,"x_max":0,"o":"m 0 451 l 0 358 l 167 513 l 167 0 l 268 0 l 268 607 l 438 764 l 438 858 l 268 700 l 268 1024 l 167 1024 l 167 606 z "},"Ń":{"ha":949,"x_min":0,"x_max":0,"o":"m 88 1014 l 88 0 l 190 0 l 190 850 l 769 0 l 863 0 l 863 1014 l 760 1014 l 760 188 l 203 1014 z m 599 1382 l 363 1068 l 463 1068 l 719 1382 z "},"ń":{"ha":861,"x_min":0,"x_max":0,"o":"m 88 725 l 88 0 l 189 0 l 189 624 l 533 624 b 678 476 629 624 678 575 l 678 0 l 779 0 l 779 493 b 553 725 779 647 704 725 z m 556 1136 l 319 822 l 419 822 l 676 1136 z "},"Ņ":{"ha":949,"x_min":0,"x_max":0,"o":"m 88 1014 l 88 0 l 190 0 l 190 850 l 769 0 l 863 0 l 863 1014 l 760 1014 l 760 188 l 203 1014 z m 439 -31 l 364 -285 l 443 -285 l 544 -31 z "},"ņ":{"ha":861,"x_min":0,"x_max":0,"o":"m 88 725 l 88 0 l 189 0 l 189 624 l 533 624 b 678 476 629 624 678 575 l 678 0 l 779 0 l 779 493 b 553 725 779 647 704 725 z m 388 -31 l 313 -285 l 392 -285 l 493 -31 z "},"Ň":{"ha":949,"x_min":0,"x_max":0,"o":"m 88 1014 l 88 0 l 190 0 l 190 850 l 769 0 l 863 0 l 863 1014 l 760 1014 l 760 188 l 203 1014 z m 215 1382 l 432 1068 l 511 1068 l 732 1382 l 638 1382 l 472 1146 l 311 1382 z "},"ň":{"ha":861,"x_min":0,"x_max":0,"o":"m 88 725 l 88 0 l 189 0 l 189 624 l 533 624 b 678 476 629 624 678 575 l 678 0 l 779 0 l 779 493 b 553 725 779 647 704 725 z m 171 1136 l 388 822 l 467 822 l 688 1136 l 593 1136 l 428 900 l 267 1136 z "},"Ŋ":{"ha":949,"x_min":0,"x_max":0,"o":"m 760 1014 l 760 188 l 203 1014 l 88 1014 l 88 0 l 190 0 l 190 850 l 760 14 l 760 -25 b 650 -147 760 -106 722 -147 l 606 -147 l 606 -246 l 671 -246 b 863 -36 799 -246 863 -175 l 863 1014 z "},"ŋ":{"ha":861,"x_min":0,"x_max":0,"o":"m 88 725 l 88 0 l 189 0 l 189 624 l 533 624 b 678 476 629 624 678 575 l 678 -25 b 568 -147 678 -106 640 -147 l 522 -147 l 522 -246 l 588 -246 b 779 -36 715 -246 779 -175 l 779 493 b 553 725 779 647 704 725 z "},"Ō":{"ha":929,"x_min":0,"x_max":0,"o":"m 304 1014 b 78 783 153 1014 78 938 l 78 231 b 304 0 78 76 153 0 l 626 0 b 853 231 776 0 853 76 l 853 783 b 626 1014 853 938 776 1014 z m 183 767 b 324 910 183 863 231 910 l 606 910 b 746 767 700 910 746 863 l 746 247 b 606 104 746 151 700 104 l 324 104 b 183 247 231 104 183 151 z m 168 1218 l 168 1138 l 761 1138 l 761 1218 z "},"ō":{"ha":854,"x_min":0,"x_max":0,"o":"m 304 725 b 78 493 153 725 78 647 l 78 232 b 304 0 78 78 153 0 l 550 0 b 776 232 700 0 776 78 l 776 493 b 550 725 776 647 700 725 z m 179 476 b 324 624 179 575 228 624 l 531 624 b 675 476 626 624 675 575 l 675 249 b 531 100 675 150 626 100 l 324 100 b 179 249 228 100 179 150 z m 131 972 l 131 892 l 724 892 l 724 972 z "},"Ŏ":{"ha":929,"x_min":0,"x_max":0,"o":"m 304 1014 b 78 783 153 1014 78 938 l 78 231 b 304 0 78 76 153 0 l 626 0 b 853 231 776 0 853 76 l 853 783 b 626 1014 853 938 776 1014 z m 183 767 b 324 910 183 863 231 910 l 606 910 b 746 767 700 910 746 863 l 746 247 b 606 104 746 151 700 104 l 324 104 b 183 247 231 104 183 151 z m 208 1382 b 463 1068 210 1174 292 1068 b 718 1382 635 1068 717 1174 l 642 1382 b 463 1133 639 1214 579 1133 b 285 1382 346 1133 288 1214 z "},"ŏ":{"ha":854,"x_min":0,"x_max":0,"o":"m 304 725 b 78 493 153 725 78 647 l 78 232 b 304 0 78 78 153 0 l 550 0 b 776 232 700 0 776 78 l 776 493 b 550 725 776 647 700 725 z m 179 476 b 324 624 179 575 228 624 l 531 624 b 675 476 626 624 675 575 l 675 249 b 531 100 675 150 626 100 l 324 100 b 179 249 228 100 179 150 z m 171 1136 b 425 822 172 928 254 822 b 681 1136 597 822 679 928 l 604 1136 b 425 888 601 968 542 888 b 247 1136 308 888 250 968 z "},"Ő":{"ha":929,"x_min":0,"x_max":0,"o":"m 304 1014 b 78 783 153 1014 78 938 l 78 231 b 304 0 78 76 153 0 l 626 0 b 853 231 776 0 853 76 l 853 783 b 626 1014 853 938 776 1014 z m 183 767 b 324 910 183 863 231 910 l 606 910 b 746 767 700 910 746 863 l 746 247 b 606 104 746 151 700 104 l 324 104 b 183 247 231 104 183 151 z m 690 1382 l 453 1068 l 549 1068 l 806 1382 z m 440 1382 l 204 1068 l 299 1068 l 556 1382 z "},"ő":{"ha":854,"x_min":0,"x_max":0,"o":"m 304 725 b 78 493 153 725 78 647 l 78 232 b 304 0 78 78 153 0 l 550 0 b 776 232 700 0 776 78 l 776 493 b 550 725 776 647 700 725 z m 179 476 b 324 624 179 575 228 624 l 531 624 b 675 476 626 624 675 575 l 675 249 b 531 100 675 150 626 100 l 324 100 b 179 249 228 100 179 150 z m 653 1136 l 415 822 l 511 822 l 768 1136 z m 403 1136 l 167 822 l 261 822 l 518 1136 z "},"Œ":{"ha":1443,"x_min":0,"x_max":0,"o":"m 304 1014 b 78 783 153 1014 78 938 l 78 231 b 304 0 78 76 153 0 l 1383 0 l 1383 104 l 853 104 l 853 465 l 1369 465 l 1369 565 l 853 565 l 853 910 l 1378 910 l 1378 1014 z m 183 767 b 324 910 183 863 231 910 l 747 910 l 747 104 l 324 104 b 183 247 231 104 183 151 z "},"œ":{"ha":1422,"x_min":0,"x_max":0,"o":"m 304 725 b 78 493 153 725 78 647 l 78 232 b 304 0 78 78 153 0 l 550 0 b 726 65 629 0 689 21 b 903 0 764 21 822 0 l 1328 0 l 1328 99 l 915 99 b 776 228 826 99 776 142 l 776 490 b 919 638 776 588 824 638 l 1139 638 b 1253 526 1215 638 1253 600 l 1253 493 b 1140 397 1253 429 1215 397 l 832 397 l 832 315 l 1168 315 b 1351 475 1290 315 1351 368 l 1351 533 b 1157 725 1351 661 1286 725 l 903 725 b 726 660 822 725 764 703 b 550 725 689 703 629 725 z m 179 476 b 324 624 179 575 228 624 l 531 624 b 675 476 626 624 675 575 l 675 249 b 531 100 675 150 626 100 l 324 100 b 179 249 228 100 179 150 z "},"Ŕ":{"ha":897,"x_min":0,"x_max":0,"o":"m 88 1014 l 88 0 l 193 0 l 193 910 l 600 910 b 707 801 671 910 707 874 l 707 668 b 600 563 707 597 671 563 l 249 563 l 249 481 l 751 0 l 892 0 l 388 478 l 618 478 b 810 667 746 478 810 546 l 810 818 b 615 1014 810 949 744 1014 z m 554 1382 l 318 1068 l 418 1068 l 675 1382 z "},"ŕ":{"ha":549,"x_min":0,"x_max":0,"o":"m 314 724 b 88 492 163 724 88 646 l 88 0 l 189 0 l 189 475 b 332 624 189 574 238 624 l 510 624 l 510 724 z m 426 1136 l 190 822 l 290 822 l 547 1136 z "},"Ŗ":{"ha":897,"x_min":0,"x_max":0,"o":"m 88 1014 l 88 0 l 193 0 l 193 910 l 600 910 b 707 801 671 910 707 874 l 707 668 b 600 563 707 597 671 563 l 249 563 l 249 481 l 751 0 l 892 0 l 388 478 l 618 478 b 810 667 746 478 810 546 l 810 818 b 615 1014 810 949 744 1014 z m 424 -31 l 349 -285 l 428 -285 l 529 -31 z "},"ŗ":{"ha":549,"x_min":0,"x_max":0,"o":"m 314 724 b 88 492 163 724 88 646 l 88 0 l 189 0 l 189 475 b 332 624 189 574 238 624 l 510 624 l 510 724 z m 83 -31 l 8 -285 l 88 -285 l 189 -31 z "},"Ř":{"ha":897,"x_min":0,"x_max":0,"o":"m 88 1014 l 88 0 l 193 0 l 193 910 l 600 910 b 707 801 671 910 707 874 l 707 668 b 600 563 707 597 671 563 l 249 563 l 249 481 l 751 0 l 892 0 l 388 478 l 618 478 b 810 667 746 478 810 546 l 810 818 b 615 1014 810 949 744 1014 z m 171 1382 l 388 1068 l 467 1068 l 688 1382 l 593 1382 l 428 1146 l 267 1382 z "},"ř":{"ha":549,"x_min":0,"x_max":0,"o":"m 314 724 b 88 492 163 724 88 646 l 88 0 l 189 0 l 189 475 b 332 624 189 574 238 624 l 510 624 l 510 724 z m 43 1136 l 260 822 l 339 822 l 560 1136 l 465 1136 l 300 900 l 139 1136 z "},"Ś":{"ha":835,"x_min":0,"x_max":0,"o":"m 278 1014 b 60 792 132 1014 60 939 l 60 675 b 257 474 60 540 125 474 l 557 474 b 669 358 632 474 669 435 l 669 233 b 543 104 669 147 628 104 l 67 104 l 67 0 l 554 0 b 772 222 700 0 772 75 l 772 367 b 575 568 772 501 707 568 l 276 568 b 164 683 200 568 164 607 l 164 781 b 289 910 164 867 206 910 l 739 910 l 739 1014 z m 556 1382 l 319 1068 l 419 1068 l 676 1382 z "},"ś":{"ha":751,"x_min":0,"x_max":0,"o":"m 228 725 b 61 565 117 725 61 671 l 61 483 b 221 335 61 385 115 335 l 513 335 b 597 256 569 335 597 308 l 597 174 b 499 88 597 115 565 88 l 68 88 l 68 0 l 525 0 b 696 161 639 0 696 54 l 696 267 b 538 415 696 365 643 415 l 246 415 b 160 494 188 415 160 442 l 160 551 b 253 638 160 608 190 638 l 664 638 l 664 725 z m 514 1136 l 278 822 l 378 822 l 635 1136 z "},"Ş":{"ha":835,"x_min":0,"x_max":0,"o":"m 278 1014 b 60 792 132 1014 60 939 l 60 675 b 257 474 60 540 125 474 l 557 474 b 669 358 632 474 669 435 l 669 233 b 543 104 669 147 628 104 l 67 104 l 67 0 l 554 0 b 772 222 700 0 772 75 l 772 367 b 575 568 772 501 707 568 l 276 568 b 164 683 200 568 164 607 l 164 781 b 289 910 164 867 206 910 l 739 910 l 739 1014 z m 378 -31 l 303 -285 l 382 -285 l 483 -31 z "},"ş":{"ha":751,"x_min":0,"x_max":0,"o":"m 228 725 b 61 565 117 725 61 671 l 61 483 b 221 335 61 385 115 335 l 513 335 b 597 256 569 335 597 308 l 597 174 b 499 88 597 115 565 88 l 68 88 l 68 0 l 525 0 b 696 161 639 0 696 54 l 696 267 b 538 415 696 365 643 415 l 246 415 b 160 494 188 415 160 442 l 160 551 b 253 638 160 608 190 638 l 664 638 l 664 725 z m 336 -31 l 261 -285 l 340 -285 l 442 -31 z "},"Š":{"ha":835,"x_min":0,"x_max":0,"o":"m 278 1014 b 60 792 132 1014 60 939 l 60 675 b 257 474 60 540 125 474 l 557 474 b 669 358 632 474 669 435 l 669 233 b 543 104 669 147 628 104 l 67 104 l 67 0 l 554 0 b 772 222 700 0 772 75 l 772 367 b 575 568 772 501 707 568 l 276 568 b 164 683 200 568 164 607 l 164 781 b 289 910 164 867 206 910 l 739 910 l 739 1014 z m 171 1382 l 388 1068 l 467 1068 l 688 1382 l 593 1382 l 428 1146 l 267 1382 z "},"š":{"ha":751,"x_min":0,"x_max":0,"o":"m 228 725 b 61 565 117 725 61 671 l 61 483 b 221 335 61 385 115 335 l 513 335 b 597 256 569 335 597 308 l 597 174 b 499 88 597 115 565 88 l 68 88 l 68 0 l 525 0 b 696 161 639 0 696 54 l 696 267 b 538 415 696 365 643 415 l 246 415 b 160 494 188 415 160 442 l 160 551 b 253 638 160 608 190 638 l 664 638 l 664 725 z m 131 1136 l 347 822 l 426 822 l 647 1136 l 553 1136 l 388 900 l 226 1136 z "},"Ţ":{"ha":783,"x_min":0,"x_max":0,"o":"m 35 1014 l 35 910 l 340 910 l 340 0 l 446 0 l 446 910 l 747 910 l 747 1014 z m 339 -31 l 264 -285 l 343 -285 l 444 -31 z "},"ţ":{"ha":474,"x_min":0,"x_max":0,"o":"m 175 961 l 175 725 l 39 725 l 39 635 l 175 635 l 175 0 l 276 0 l 276 635 l 433 635 l 433 725 l 276 725 l 276 961 z m 172 -31 l 97 -285 l 176 -285 l 278 -31 z "},"Ť":{"ha":783,"x_min":0,"x_max":0,"o":"m 35 1014 l 35 910 l 340 910 l 340 0 l 446 0 l 446 910 l 747 910 l 747 1014 z m 132 1382 l 349 1068 l 428 1068 l 649 1382 l 554 1382 l 389 1146 l 228 1382 z "},"ť":{"ha":594,"x_min":0,"x_max":0,"o":"m 175 961 l 175 725 l 39 725 l 39 635 l 175 635 l 175 0 l 276 0 l 276 635 l 433 635 l 433 725 l 276 725 l 276 961 z m 522 1024 l 447 769 l 526 769 l 628 1024 z "},"Ŧ":{"ha":783,"x_min":0,"x_max":0,"o":"m 103 514 l 103 433 l 340 433 l 340 0 l 446 0 l 446 433 l 696 433 l 696 514 l 446 514 l 446 910 l 747 910 l 747 1014 l 35 1014 l 35 910 l 340 910 l 340 514 z "},"ŧ":{"ha":472,"x_min":0,"x_max":0,"o":"m 7 371 l 7 296 l 175 296 l 175 0 l 276 0 l 276 296 l 465 296 l 465 371 l 276 371 l 276 635 l 433 635 l 433 725 l 276 725 l 276 961 l 175 961 l 175 725 l 39 725 l 39 635 l 175 635 l 175 371 z "},"Ũ":{"ha":928,"x_min":0,"x_max":0,"o":"m 82 1014 l 82 231 b 308 0 82 76 157 0 l 619 0 b 846 231 769 0 846 76 l 846 1014 l 740 1014 l 740 247 b 599 104 740 151 693 104 l 328 104 b 188 247 235 104 188 151 l 188 1014 z m 167 1218 l 167 1138 l 760 1138 l 760 1218 z "},"ũ":{"ha":851,"x_min":0,"x_max":0,"o":"m 82 724 l 82 232 b 308 0 82 78 157 0 l 543 0 b 769 232 693 0 769 78 l 769 724 l 669 724 l 669 249 b 525 100 669 150 621 100 l 326 100 b 183 249 232 100 183 150 l 183 724 z m 129 972 l 129 892 l 722 892 l 722 972 z "},"Ū":{"ha":928,"x_min":0,"x_max":0,"o":"m 82 1014 l 82 231 b 308 0 82 76 157 0 l 619 0 b 846 231 769 0 846 76 l 846 1014 l 740 1014 l 740 247 b 599 104 740 151 693 104 l 328 104 b 188 247 235 104 188 151 l 188 1014 z m 167 1218 l 167 1138 l 760 1138 l 760 1218 z "},"ū":{"ha":851,"x_min":0,"x_max":0,"o":"m 82 724 l 82 232 b 308 0 82 78 157 0 l 543 0 b 769 232 693 0 769 78 l 769 724 l 669 724 l 669 249 b 525 100 669 150 621 100 l 326 100 b 183 249 232 100 183 150 l 183 724 z m 129 972 l 129 892 l 722 892 l 722 972 z "},"Ŭ":{"ha":928,"x_min":0,"x_max":0,"o":"m 82 1014 l 82 231 b 308 0 82 76 157 0 l 619 0 b 846 231 769 0 846 76 l 846 1014 l 740 1014 l 740 247 b 599 104 740 151 693 104 l 328 104 b 188 247 235 104 188 151 l 188 1014 z m 207 1382 b 461 1068 208 1174 290 1068 b 717 1382 633 1068 715 1174 l 640 1382 b 461 1133 638 1214 578 1133 b 283 1382 344 1133 286 1214 z "},"ŭ":{"ha":851,"x_min":0,"x_max":0,"o":"m 82 724 l 82 232 b 308 0 82 78 157 0 l 543 0 b 769 232 693 0 769 78 l 769 724 l 669 724 l 669 249 b 525 100 669 150 621 100 l 326 100 b 183 249 232 100 183 150 l 183 724 z m 168 1136 b 422 822 169 928 251 822 b 678 1136 594 822 676 928 l 601 1136 b 422 888 599 968 539 888 b 244 1136 306 888 247 968 z "},"Ů":{"ha":928,"x_min":0,"x_max":0,"o":"m 82 1014 l 82 231 b 308 0 82 76 157 0 l 619 0 b 846 231 769 0 846 76 l 846 1014 l 740 1014 l 740 247 b 599 104 740 151 693 104 l 328 104 b 188 247 235 104 188 151 l 188 1014 z m 407 1382 b 303 1288 338 1382 303 1350 l 303 1164 b 407 1068 303 1100 338 1068 l 519 1068 b 624 1164 589 1068 624 1100 l 624 1288 b 519 1382 624 1350 589 1382 z m 358 1279 b 417 1331 358 1313 378 1331 l 510 1331 b 568 1279 549 1331 568 1313 l 568 1172 b 510 1119 568 1138 549 1119 l 417 1119 b 358 1172 378 1119 358 1138 z "},"ů":{"ha":851,"x_min":0,"x_max":0,"o":"m 82 724 l 82 232 b 308 0 82 78 157 0 l 543 0 b 769 232 693 0 769 78 l 769 724 l 669 724 l 669 249 b 525 100 669 150 621 100 l 326 100 b 183 249 232 100 183 150 l 183 724 z m 369 1136 b 265 1042 300 1136 265 1104 l 265 918 b 369 822 265 854 300 822 l 482 822 b 586 918 551 822 586 854 l 586 1042 b 482 1136 586 1104 551 1136 z m 321 1033 b 379 1085 321 1067 340 1085 l 472 1085 b 531 1033 511 1085 531 1067 l 531 926 b 472 874 531 892 511 874 l 379 874 b 321 926 340 874 321 892 z "},"Ű":{"ha":928,"x_min":0,"x_max":0,"o":"m 82 1014 l 82 231 b 308 0 82 76 157 0 l 619 0 b 846 231 769 0 846 76 l 846 1014 l 740 1014 l 740 247 b 599 104 740 151 693 104 l 328 104 b 188 247 235 104 188 151 l 188 1014 z m 689 1382 l 451 1068 l 547 1068 l 804 1382 z m 439 1382 l 203 1068 l 297 1068 l 554 1382 z "},"ű":{"ha":851,"x_min":0,"x_max":0,"o":"m 82 724 l 82 232 b 308 0 82 78 157 0 l 543 0 b 769 232 693 0 769 78 l 769 724 l 669 724 l 669 249 b 525 100 669 150 621 100 l 326 100 b 183 249 232 100 183 150 l 183 724 z m 651 1136 l 414 822 l 510 822 l 767 1136 z m 401 1136 l 165 822 l 260 822 l 517 1136 z "},"Ų":{"ha":928,"x_min":0,"x_max":0,"o":"m 369 -49 b 293 -143 314 -68 293 -94 l 293 -185 b 400 -285 293 -251 328 -285 l 572 -285 l 572 -207 l 453 -207 b 388 -150 408 -207 388 -187 l 388 -121 b 438 -58 388 -93 403 -74 l 572 0 l 619 0 b 846 231 769 0 846 76 l 846 1014 l 740 1014 l 740 247 b 599 104 740 151 693 104 l 328 104 b 188 247 235 104 188 151 l 188 1014 l 82 1014 l 82 231 b 308 0 82 76 157 0 l 508 0 z "},"ų":{"ha":851,"x_min":0,"x_max":0,"o":"m 322 -49 b 246 -143 267 -68 246 -94 l 246 -185 b 353 -285 246 -251 281 -285 l 525 -285 l 525 -207 l 406 -207 b 340 -150 361 -207 340 -187 l 340 -121 b 390 -58 340 -93 356 -74 l 525 0 l 543 0 b 769 232 693 0 769 78 l 769 724 l 669 724 l 669 249 b 525 100 669 150 621 100 l 326 100 b 183 249 232 100 183 150 l 183 724 l 82 724 l 82 232 b 308 0 82 78 157 0 l 461 0 z "},"Ŵ":{"ha":1290,"x_min":0,"x_max":0,"o":"m 19 1014 l 292 0 l 397 0 l 647 865 l 889 0 l 996 0 l 1272 1014 l 1163 1014 l 940 175 l 701 1014 l 596 1014 l 349 178 l 129 1014 z m 608 1382 l 386 1068 l 482 1068 l 647 1304 l 808 1068 l 903 1068 l 688 1382 z "},"ŵ":{"ha":1179,"x_min":0,"x_max":0,"o":"m 18 725 l 265 0 l 364 0 l 590 613 l 811 0 l 911 0 l 1161 725 l 1058 725 l 858 129 l 642 725 l 542 725 l 318 131 l 122 725 z m 553 1136 l 331 822 l 426 822 l 592 1058 l 753 822 l 847 822 l 632 1136 z "},"Ŷ":{"ha":906,"x_min":0,"x_max":0,"o":"m 14 1014 l 401 431 l 401 0 l 508 0 l 508 431 l 892 1014 l 774 1014 l 456 521 l 136 1014 z m 415 1382 l 193 1068 l 289 1068 l 454 1304 l 615 1068 l 710 1068 l 494 1382 z "},"ŷ":{"ha":861,"x_min":0,"x_max":0,"o":"m 82 725 l 82 263 b 308 44 82 117 157 44 l 672 44 l 672 11 b 528 -147 672 -94 624 -147 l 215 -147 l 215 -246 l 547 -246 b 774 0 699 -246 774 -164 l 774 725 l 672 725 l 672 139 l 326 139 b 183 278 232 139 183 185 l 183 725 z m 393 1136 l 171 822 l 267 822 l 432 1058 l 593 822 l 688 822 l 472 1136 z "},"Ÿ":{"ha":906,"x_min":0,"x_max":0,"o":"m 14 1014 l 401 431 l 401 0 l 508 0 l 508 431 l 892 1014 l 774 1014 l 456 521 l 136 1014 z m 538 1285 l 538 1124 l 632 1124 l 632 1285 z m 281 1285 l 281 1124 l 375 1124 l 375 1285 z "},"Ź":{"ha":856,"x_min":0,"x_max":0,"o":"m 72 1014 l 72 910 l 640 910 l 71 108 l 71 0 l 782 0 l 782 104 l 200 104 l 776 919 l 776 1014 z m 553 1382 l 317 1068 l 417 1068 l 674 1382 z "},"ź":{"ha":783,"x_min":0,"x_max":0,"o":"m 74 725 l 74 631 l 569 631 l 71 99 l 71 0 l 717 0 l 717 94 l 204 94 l 711 639 l 711 725 z m 517 1136 l 281 822 l 381 822 l 638 1136 z "},"Ż":{"ha":856,"x_min":0,"x_max":0,"o":"m 72 1014 l 72 910 l 640 910 l 71 108 l 71 0 l 782 0 l 782 104 l 200 104 l 776 919 l 776 1014 z m 379 1285 l 379 1124 l 474 1124 l 474 1285 z "},"ż":{"ha":783,"x_min":0,"x_max":0,"o":"m 74 725 l 74 631 l 569 631 l 71 99 l 71 0 l 717 0 l 717 94 l 204 94 l 711 639 l 711 725 z m 342 1039 l 342 878 l 436 878 l 436 1039 z "},"Ž":{"ha":856,"x_min":0,"x_max":0,"o":"m 72 1014 l 72 910 l 640 910 l 71 108 l 71 0 l 782 0 l 782 104 l 200 104 l 776 919 l 776 1014 z m 169 1382 l 386 1068 l 465 1068 l 686 1382 l 592 1382 l 426 1146 l 265 1382 z "},"ž":{"ha":783,"x_min":0,"x_max":0,"o":"m 74 725 l 74 631 l 569 631 l 71 99 l 71 0 l 717 0 l 717 94 l 204 94 l 711 639 l 711 725 z m 132 1136 l 349 822 l 428 822 l 649 1136 l 554 1136 l 389 900 l 228 1136 z "},"ƒ":{"ha":625,"x_min":0,"x_max":0,"o":"m 76 708 l 76 614 l 263 614 l 263 -32 b 156 -150 263 -111 226 -150 l 75 -150 l 75 -246 l 176 -246 b 363 -46 301 -246 363 -179 l 363 614 l 544 614 l 544 708 l 363 708 l 363 800 b 469 918 363 878 399 918 l 547 918 l 547 1014 l 449 1014 b 263 814 322 1014 263 947 l 263 708 z "},"Ș":{"ha":835,"x_min":0,"x_max":0,"o":"m 278 1014 b 60 792 132 1014 60 939 l 60 675 b 257 474 60 540 125 474 l 557 474 b 669 358 632 474 669 435 l 669 233 b 543 104 669 147 628 104 l 67 104 l 67 0 l 554 0 b 772 222 700 0 772 75 l 772 367 b 575 568 772 501 707 568 l 276 568 b 164 683 200 568 164 607 l 164 781 b 289 910 164 867 206 910 l 739 910 l 739 1014 z m 378 -31 l 303 -285 l 382 -285 l 483 -31 z "},"ș":{"ha":751,"x_min":0,"x_max":0,"o":"m 228 725 b 61 565 117 725 61 671 l 61 483 b 221 335 61 385 115 335 l 513 335 b 597 256 569 335 597 308 l 597 174 b 499 88 597 115 565 88 l 68 88 l 68 0 l 525 0 b 696 161 639 0 696 54 l 696 267 b 538 415 696 365 643 415 l 246 415 b 160 494 188 415 160 442 l 160 551 b 253 638 160 608 190 638 l 664 638 l 664 725 z m 336 -31 l 261 -285 l 340 -285 l 442 -31 z "},"Ț":{"ha":783,"x_min":0,"x_max":0,"o":"m 35 1014 l 35 910 l 340 910 l 340 0 l 446 0 l 446 910 l 747 910 l 747 1014 z m 339 -31 l 264 -285 l 343 -285 l 444 -31 z "},"ț":{"ha":474,"x_min":0,"x_max":0,"o":"m 175 961 l 175 725 l 39 725 l 39 635 l 175 635 l 175 0 l 276 0 l 276 635 l 433 635 l 433 725 l 276 725 l 276 961 z m 174 -31 l 99 -285 l 178 -285 l 279 -31 z "},"ˆ":{"ha":724,"x_min":0,"x_max":0,"o":"m 325 1136 l 103 822 l 199 822 l 364 1058 l 525 822 l 619 822 l 404 1136 z "},"ˇ":{"ha":724,"x_min":0,"x_max":0,"o":"m 103 1136 l 319 822 l 399 822 l 619 1136 l 525 1136 l 360 900 l 199 1136 z "},"˘":{"ha":701,"x_min":0,"x_max":0,"o":"m 94 1136 b 349 822 96 928 178 822 b 604 1136 521 822 603 928 l 528 1136 b 349 888 525 968 465 888 b 171 1136 232 888 174 968 z "},"˙":{"ha":231,"x_min":0,"x_max":0,"o":"m 68 1039 l 68 878 l 163 878 l 163 1039 z "},"˚":{"ha":457,"x_min":0,"x_max":0,"o":"m 172 1136 b 68 1042 103 1136 68 1104 l 68 918 b 172 822 68 854 103 822 l 285 822 b 389 918 354 822 389 854 l 389 1042 b 285 1136 389 1104 354 1136 z m 124 1033 b 182 1085 124 1067 143 1085 l 275 1085 b 333 1033 314 1085 333 1067 l 333 926 b 275 874 333 892 314 874 l 182 874 b 124 926 143 874 124 892 z "},"˛":{"ha":415,"x_min":0,"x_max":0,"o":"m 144 -49 b 68 -143 89 -68 68 -94 l 68 -185 b 175 -285 68 -251 103 -285 l 347 -285 l 347 -207 l 228 -207 b 163 -150 183 -207 163 -187 l 163 -121 b 213 -58 163 -93 178 -74 l 347 0 l 283 0 z "},"˜":{"ha":729,"x_min":0,"x_max":0,"o":"m 68 972 l 68 892 l 661 892 l 661 972 z "},"˝":{"ha":792,"x_min":0,"x_max":0,"o":"m 581 1136 l 343 822 l 439 822 l 696 1136 z m 331 1136 l 94 822 l 189 822 l 446 1136 z "},"̷":{"ha":0,"x_min":0,"x_max":0,"o":"m -74 907 l -699 -139 l -625 -139 l 0 907 z "},"̸":{"ha":0,"x_min":0,"x_max":0,"o":"m -72 1153 l -775 -139 l -703 -139 l 0 1153 z "},"Δ":{"ha":981,"x_min":0,"x_max":0,"o":"m 425 1014 l 17 0 l 958 0 l 539 1014 z m 806 104 l 161 104 l 482 897 z "},"Ω":{"ha":996,"x_min":0,"x_max":0,"o":"m 310 1014 b 83 782 158 1014 83 936 l 83 426 b 242 238 83 300 136 238 l 338 238 l 338 96 l 83 96 l 83 0 l 407 0 l 407 319 l 279 319 b 179 439 213 319 179 360 l 179 769 b 324 918 179 868 228 918 l 672 918 b 817 769 768 918 817 868 l 817 439 b 717 319 817 360 783 319 l 589 319 l 589 0 l 914 0 l 914 96 l 658 96 l 658 238 l 754 238 b 914 426 861 238 914 300 l 914 782 b 688 1014 914 936 838 1014 z "},"μ":{"ha":861,"x_min":0,"x_max":0,"o":"m 88 725 l 88 -246 l 189 -246 l 189 0 l 553 0 b 779 218 704 0 779 72 l 779 725 l 678 725 l 678 232 b 533 93 678 139 629 93 l 189 93 l 189 725 z "},"π":{"ha":944,"x_min":0,"x_max":0,"o":"m 39 725 l 39 631 l 140 631 l 140 0 l 242 0 l 242 631 l 682 631 l 682 0 l 783 0 l 783 631 l 906 631 l 906 725 z "},"Ѐ":{"ha":783,"x_min":0,"x_max":0,"o":"m 88 1014 l 88 0 l 724 0 l 724 104 l 193 104 l 193 465 l 710 465 l 710 565 l 193 565 l 193 910 l 718 910 l 718 1014 z m 158 1382 l 415 1068 l 515 1068 l 278 1382 z "},"Ё":{"ha":783,"x_min":0,"x_max":0,"o":"m 88 1014 l 88 0 l 724 0 l 724 104 l 193 104 l 193 465 l 710 465 l 710 565 l 193 565 l 193 910 l 718 910 l 718 1014 z m 493 1285 l 493 1124 l 588 1124 l 588 1285 z m 236 1285 l 236 1124 l 331 1124 l 331 1285 z "},"Ђ":{"ha":1011,"x_min":0,"x_max":0,"o":"m 35 1014 l 35 910 l 292 910 l 292 0 l 399 0 l 399 494 l 683 494 b 824 351 776 494 824 447 l 824 1 b 683 -142 824 -94 776 -142 l 533 -142 l 533 -246 l 703 -246 b 929 -15 854 -246 929 -169 l 929 361 b 703 592 929 515 854 592 l 399 592 l 399 910 l 699 910 l 699 1014 z "},"Ѓ":{"ha":747,"x_min":0,"x_max":0,"o":"m 528 1382 l 292 1068 l 392 1068 l 649 1382 z m 88 1014 l 88 0 l 193 0 l 193 910 l 711 910 l 711 1014 z "},"Є":{"ha":783,"x_min":0,"x_max":0,"o":"m 399 1014 b 78 686 185 1014 78 904 l 78 328 b 399 0 78 110 185 0 l 724 0 l 724 104 l 400 104 b 183 329 251 104 183 179 l 183 465 l 715 465 l 715 565 l 183 565 l 183 685 b 400 910 183 835 253 910 l 724 910 l 724 1014 z "},"Ѕ":{"ha":835,"x_min":0,"x_max":0,"o":"m 278 1014 b 60 792 132 1014 60 939 l 60 675 b 257 474 60 540 125 474 l 557 474 b 669 358 632 474 669 435 l 669 233 b 543 104 669 147 628 104 l 67 104 l 67 0 l 554 0 b 772 222 700 0 772 75 l 772 367 b 575 568 772 501 707 568 l 276 568 b 164 683 200 568 164 607 l 164 781 b 289 910 164 867 206 910 l 739 910 l 739 1014 z "},"І":{"ha":279,"x_min":0,"x_max":0,"o":"m 88 1014 l 88 0 l 193 0 l 193 1014 z "},"Ї":{"ha":374,"x_min":0,"x_max":0,"o":"m 135 1014 l 135 0 l 240 0 l 240 1014 z m 268 1285 l 268 1124 l 363 1124 l 363 1285 z m 11 1285 l 11 1124 l 106 1124 l 106 1285 z "},"Ј":{"ha":629,"x_min":0,"x_max":0,"o":"m 442 1014 l 442 247 b 301 104 442 151 394 104 l 35 104 l 35 0 l 321 0 b 547 231 471 0 547 76 l 547 1014 z "},"Љ":{"ha":1544,"x_min":0,"x_max":0,"o":"m 354 1014 l 244 306 b 67 104 222 165 164 104 l 35 104 l 35 0 l 82 1 b 339 285 226 3 308 92 l 438 910 l 761 910 l 761 0 l 1275 0 b 1511 231 1433 0 1511 76 l 1511 340 b 1275 571 1511 494 1433 571 l 924 571 l 924 472 l 1264 472 b 1406 338 1358 472 1406 428 l 1406 238 b 1264 104 1406 149 1358 104 l 868 104 l 868 1014 z "},"Њ":{"ha":1490,"x_min":0,"x_max":0,"o":"m 88 1014 l 88 0 l 193 0 l 193 472 l 707 472 l 707 0 l 1221 0 b 1457 231 1379 0 1457 76 l 1457 340 b 1221 571 1457 494 1379 571 l 869 571 l 869 472 l 1210 472 b 1351 338 1304 472 1351 428 l 1351 238 b 1210 104 1351 149 1304 104 l 814 104 l 814 1014 l 707 1014 l 707 571 l 193 571 l 193 1014 z "},"Ћ":{"ha":1011,"x_min":0,"x_max":0,"o":"m 35 1014 l 35 910 l 292 910 l 292 0 l 399 0 l 399 494 l 683 494 b 824 351 776 494 824 447 l 824 0 l 929 0 l 929 361 b 703 592 929 515 854 592 l 399 592 l 399 910 l 699 910 l 699 1014 z "},"Ќ":{"ha":869,"x_min":0,"x_max":0,"o":"m 575 1382 l 339 1068 l 439 1068 l 696 1382 z m 88 1014 l 88 0 l 193 0 l 193 479 l 228 479 l 651 0 l 779 0 l 317 532 l 758 1014 l 635 1014 l 228 567 l 193 567 l 193 1014 z "},"Ѝ":{"ha":900,"x_min":0,"x_max":0,"o":"m 203 1382 l 460 1068 l 560 1068 l 322 1382 z m 88 1014 l 88 0 l 193 0 l 707 828 l 707 0 l 813 0 l 813 1014 l 707 1014 l 193 185 l 193 1014 z "},"Ў":{"ha":883,"x_min":0,"x_max":0,"o":"m 185 1382 b 439 1068 186 1174 268 1068 b 694 1382 611 1068 693 1174 l 618 1382 b 439 1133 615 1214 556 1133 b 261 1382 322 1133 264 1214 z m 14 1014 l 392 268 l 379 243 b 188 104 326 138 286 104 l 115 104 l 115 0 l 179 0 b 474 208 326 0 397 53 l 869 1014 l 756 1014 l 444 376 l 129 1014 z "},"Џ":{"ha":900,"x_min":0,"x_max":0,"o":"m 813 0 l 813 1014 l 708 1014 l 708 104 l 193 104 l 193 1014 l 88 1014 l 88 0 l 404 0 l 404 -246 l 496 -246 l 496 0 z "},"А":{"ha":981,"x_min":0,"x_max":0,"o":"m 319 344 l 282 247 l 747 247 l 847 0 l 965 0 l 543 1014 l 429 1014 l 17 0 l 126 0 l 485 894 l 708 344 z "},"Б":{"ha":871,"x_min":0,"x_max":0,"o":"m 88 1014 l 88 0 l 600 0 b 836 231 758 0 836 76 l 836 340 b 600 571 836 494 758 571 l 249 571 l 249 472 l 589 472 b 731 338 683 472 731 428 l 731 238 b 589 104 731 149 683 104 l 193 104 l 193 910 l 711 910 l 711 1014 z "},"В":{"ha":872,"x_min":0,"x_max":0,"o":"m 88 1014 l 88 0 l 590 0 b 818 219 742 0 818 72 l 818 329 b 700 513 818 424 778 485 b 810 689 774 542 810 603 l 810 783 b 583 1014 810 938 733 1014 z m 193 910 l 567 910 b 707 767 661 910 707 861 l 707 678 b 563 561 707 600 660 561 l 249 561 l 249 468 l 563 468 b 713 343 663 468 713 425 l 713 236 b 572 104 713 149 665 104 l 193 104 z "},"Г":{"ha":747,"x_min":0,"x_max":0,"o":"m 88 1014 l 88 0 l 193 0 l 193 910 l 711 910 l 711 1014 z "},"Д":{"ha":1049,"x_min":0,"x_max":0,"o":"m 29 104 l 29 -246 l 121 -246 l 121 0 l 926 0 l 926 -246 l 1018 -246 l 1018 104 l 897 104 l 897 1014 l 385 1014 l 275 306 b 97 104 253 165 194 104 z m 308 104 b 369 285 338 149 357 208 l 468 910 l 792 910 l 792 104 z "},"Е":{"ha":783,"x_min":0,"x_max":0,"o":"m 88 1014 l 88 0 l 724 0 l 724 104 l 193 104 l 193 465 l 710 465 l 710 565 l 193 565 l 193 910 l 718 910 l 718 1014 z "},"Ж":{"ha":1318,"x_min":0,"x_max":0,"o":"m 606 1014 l 606 567 l 569 567 l 163 1014 l 40 1014 l 481 532 l 18 0 l 147 0 l 569 479 l 606 479 l 606 0 l 711 0 l 711 479 l 747 479 l 1169 0 l 1299 0 l 836 532 l 1276 1014 l 1154 1014 l 747 567 l 711 567 l 711 1014 z "},"З":{"ha":775,"x_min":0,"x_max":0,"o":"m 64 1014 l 64 910 l 471 910 b 610 767 564 910 610 861 l 610 681 b 467 564 610 603 563 564 l 299 564 l 299 464 l 467 464 b 617 339 567 464 617 422 l 617 236 b 475 104 617 149 569 104 l 58 104 l 58 0 l 494 0 b 721 219 646 0 721 72 l 721 329 b 603 513 721 424 681 485 b 713 689 676 540 713 603 l 713 783 b 486 1014 713 938 638 1014 z "},"И":{"ha":900,"x_min":0,"x_max":0,"o":"m 88 1014 l 88 0 l 193 0 l 707 828 l 707 0 l 813 0 l 813 1014 l 707 1014 l 193 185 l 193 1014 z "},"Й":{"ha":900,"x_min":0,"x_max":0,"o":"m 193 1382 b 447 1068 194 1174 276 1068 b 703 1382 619 1068 701 1174 l 626 1382 b 447 1133 624 1214 564 1133 b 269 1382 331 1133 272 1214 z m 88 1014 l 88 0 l 193 0 l 707 828 l 707 0 l 813 0 l 813 1014 l 707 1014 l 193 185 l 193 1014 z "},"К":{"ha":799,"x_min":0,"x_max":0,"o":"m 88 1014 l 88 0 l 193 0 l 193 479 l 228 479 l 651 0 l 779 0 l 317 532 l 758 1014 l 635 1014 l 228 567 l 193 567 l 193 1014 z "},"Л":{"ha":954,"x_min":0,"x_max":0,"o":"m 354 1014 l 244 306 b 67 104 222 165 164 104 l 35 104 l 35 0 l 82 1 b 339 285 226 3 308 92 l 438 910 l 761 910 l 761 0 l 867 0 l 867 1014 z "},"М":{"ha":1117,"x_min":0,"x_max":0,"o":"m 88 1014 l 88 0 l 185 0 l 185 819 l 510 0 l 611 0 l 931 818 l 931 0 l 1029 0 l 1029 1014 l 906 1014 l 561 115 l 213 1014 z "},"Н":{"ha":900,"x_min":0,"x_max":0,"o":"m 88 1014 l 88 0 l 193 0 l 193 472 l 707 472 l 707 0 l 813 0 l 813 1014 l 707 1014 l 707 571 l 193 571 l 193 1014 z "},"О":{"ha":929,"x_min":0,"x_max":0,"o":"m 304 1014 b 78 783 153 1014 78 938 l 78 231 b 304 0 78 76 153 0 l 626 0 b 853 231 776 0 853 76 l 853 783 b 626 1014 853 938 776 1014 z m 183 767 b 324 910 183 863 231 910 l 606 910 b 746 767 700 910 746 863 l 746 247 b 606 104 746 151 700 104 l 324 104 b 183 247 231 104 183 151 z "},"П":{"ha":900,"x_min":0,"x_max":0,"o":"m 88 1014 l 88 0 l 192 0 l 192 910 l 707 910 l 707 0 l 813 0 l 813 1014 z "},"Р":{"ha":871,"x_min":0,"x_max":0,"o":"m 88 1014 l 88 0 l 193 0 l 193 910 l 600 910 b 731 775 688 910 731 865 l 731 685 b 600 550 731 596 688 550 l 249 550 l 249 451 l 610 451 b 836 683 761 451 836 528 l 836 782 b 610 1014 836 938 761 1014 z "},"С":{"ha":788,"x_min":0,"x_max":0,"o":"m 304 1014 b 78 783 153 1014 78 938 l 78 231 b 304 0 78 76 153 0 l 724 0 l 724 104 l 324 104 b 183 247 231 104 183 151 l 183 767 b 324 910 183 863 231 910 l 724 910 l 724 1014 z "},"Т":{"ha":783,"x_min":0,"x_max":0,"o":"m 35 1014 l 35 910 l 340 910 l 340 0 l 446 0 l 446 910 l 747 910 l 747 1014 z "},"У":{"ha":883,"x_min":0,"x_max":0,"o":"m 14 1014 l 392 268 l 379 243 b 188 104 326 138 286 104 l 115 104 l 115 0 l 179 0 b 474 208 326 0 397 53 l 869 1014 l 756 1014 l 444 376 l 129 1014 z "},"Ф":{"ha":1035,"x_min":0,"x_max":0,"o":"m 465 1014 l 465 875 l 275 875 b 49 644 124 875 49 799 l 49 369 b 275 139 49 215 124 139 l 465 139 l 465 0 l 568 0 l 568 139 l 760 139 b 986 369 910 139 986 215 l 986 644 b 760 875 986 799 910 875 l 568 875 l 568 1014 z m 743 774 b 883 632 838 774 883 726 l 883 382 b 743 239 883 288 838 239 l 568 239 l 568 774 z m 151 632 b 292 774 151 726 199 774 l 465 774 l 465 239 l 292 239 b 151 382 199 239 151 288 z "},"Х":{"ha":910,"x_min":0,"x_max":0,"o":"m 44 1014 l 397 517 l 19 0 l 138 0 l 456 435 l 765 0 l 890 0 l 524 513 l 889 1014 l 772 1014 l 465 596 l 167 1014 z "},"Ц":{"ha":965,"x_min":0,"x_max":0,"o":"m 813 1014 l 708 1014 l 708 104 l 193 104 l 193 1014 l 88 1014 l 88 0 l 843 0 l 843 -246 l 935 -246 l 935 104 l 813 104 z "},"Ч":{"ha":875,"x_min":0,"x_max":0,"o":"m 81 1014 l 81 703 b 307 472 81 549 156 472 l 683 472 l 683 0 l 789 0 l 789 1014 l 683 1014 l 683 569 l 326 569 b 186 713 233 569 186 617 l 186 1014 z "},"Ш":{"ha":1274,"x_min":0,"x_max":0,"o":"m 88 1014 l 88 0 l 1186 0 l 1186 1014 l 1081 1014 l 1081 104 l 689 104 l 689 1014 l 583 1014 l 583 104 l 193 104 l 193 1014 z "},"Щ":{"ha":1338,"x_min":0,"x_max":0,"o":"m 88 1014 l 88 0 l 1217 0 l 1217 -246 l 1308 -246 l 1308 104 l 1186 104 l 1186 1014 l 1081 1014 l 1081 104 l 689 104 l 689 1014 l 583 1014 l 583 104 l 193 104 l 193 1014 z "},"Ъ":{"ha":1071,"x_min":0,"x_max":0,"o":"m 35 1014 l 35 910 l 288 910 l 288 0 l 800 0 b 1036 231 958 0 1036 76 l 1036 340 b 800 571 1036 494 958 571 l 449 571 l 449 472 l 789 472 b 931 338 883 472 931 428 l 931 238 b 789 104 931 149 883 104 l 393 104 l 393 1014 z "},"Ы":{"ha":1193,"x_min":0,"x_max":0,"o":"m 1001 1014 l 1001 0 l 1107 0 l 1107 1014 z m 88 1014 l 88 0 l 600 0 b 836 231 758 0 836 76 l 836 340 b 600 571 836 494 758 571 l 249 571 l 249 472 l 589 472 b 731 338 683 472 731 428 l 731 238 b 589 104 731 149 683 104 l 193 104 l 193 1014 z "},"Ь":{"ha":871,"x_min":0,"x_max":0,"o":"m 88 1014 l 88 0 l 600 0 b 836 231 758 0 836 76 l 836 340 b 600 571 836 494 758 571 l 249 571 l 249 472 l 589 472 b 731 338 683 472 731 428 l 731 238 b 589 104 731 149 683 104 l 193 104 l 193 1014 z "},"Э":{"ha":783,"x_min":0,"x_max":0,"o":"m 60 1014 l 60 910 l 383 910 b 600 685 531 910 600 835 l 600 565 l 68 565 l 68 465 l 600 465 l 600 329 b 383 104 600 179 532 104 l 60 104 l 60 0 l 385 0 b 706 328 599 0 706 110 l 706 686 b 385 1014 706 904 599 1014 z "},"Ю":{"ha":1313,"x_min":0,"x_max":0,"o":"m 728 1014 b 501 783 576 1014 501 938 l 501 565 l 236 565 l 236 1014 l 131 1014 l 131 0 l 236 0 l 236 465 l 501 465 l 501 231 b 728 0 501 76 576 0 l 1010 0 b 1235 231 1160 0 1235 76 l 1235 783 b 1010 1014 1235 938 1160 1014 z m 607 767 b 747 910 607 863 654 910 l 989 910 b 1129 767 1083 910 1129 863 l 1129 247 b 989 104 1129 151 1083 104 l 747 104 b 607 247 654 104 607 151 z "},"Я":{"ha":897,"x_min":0,"x_max":0,"o":"m 281 1014 b 88 818 151 1014 88 949 l 88 667 b 279 478 88 546 150 478 l 510 478 l 4 0 l 144 0 l 649 481 l 649 563 l 297 563 b 190 668 226 563 190 597 l 190 801 b 297 910 190 874 226 910 l 704 910 l 704 0 l 810 0 l 810 1014 z "},"а":{"ha":824,"x_min":0,"x_max":0,"o":"m 94 725 l 94 626 l 508 626 b 646 483 600 626 646 578 l 646 235 b 504 88 646 136 599 88 l 283 88 b 169 199 208 88 169 125 l 169 232 b 282 328 169 296 207 328 l 590 328 l 590 410 l 256 410 b 72 249 132 410 72 356 l 72 192 b 265 0 72 64 136 0 l 521 0 b 747 232 671 0 747 78 l 747 493 b 521 725 747 647 671 725 z "},"б":{"ha":854,"x_min":0,"x_max":0,"o":"m 164 867 b 82 694 104 813 82 767 l 82 232 b 308 0 82 78 157 0 l 547 0 b 774 232 699 0 774 78 l 774 465 b 547 697 774 619 699 697 l 239 697 l 239 597 l 528 597 b 672 449 624 597 672 547 l 672 249 b 528 100 672 150 624 100 l 326 100 b 183 249 232 100 183 150 l 183 690 b 236 804 183 736 196 768 l 489 1024 l 340 1024 z "},"в":{"ha":881,"x_min":0,"x_max":0,"o":"m 88 725 l 88 0 l 614 0 b 807 158 743 0 807 53 l 807 242 b 707 379 807 310 774 357 b 799 511 768 401 799 447 l 799 572 b 603 725 799 674 732 725 z m 189 632 l 589 632 b 700 550 664 632 700 606 l 700 499 b 576 414 700 442 658 414 l 244 414 l 244 339 l 576 339 b 706 247 663 339 706 307 l 706 188 b 597 100 706 129 669 100 l 189 100 z "},"г":{"ha":708,"x_min":0,"x_max":0,"o":"m 88 725 l 88 0 l 189 0 l 189 624 l 669 624 l 669 725 z "},"д":{"ha":935,"x_min":0,"x_max":0,"o":"m 29 101 l 29 -219 l 121 -219 l 121 0 l 814 0 l 814 -219 l 906 -219 l 906 101 l 796 101 l 796 725 l 326 725 l 229 242 b 88 101 208 147 163 108 z m 276 100 b 317 210 294 129 307 165 l 401 624 l 694 624 l 694 100 z "},"е":{"ha":824,"x_min":0,"x_max":0,"o":"m 304 725 b 78 493 153 725 78 647 l 78 232 b 304 0 78 78 153 0 l 729 0 l 729 99 l 317 99 b 178 242 224 99 178 146 l 178 490 b 321 638 178 588 225 638 l 540 638 b 654 526 617 638 654 600 l 654 493 b 542 397 654 429 617 397 l 233 397 l 233 315 l 569 315 b 753 475 692 315 753 368 l 753 533 b 558 725 753 661 688 725 z "},"ж":{"ha":1214,"x_min":0,"x_max":0,"o":"m 556 725 l 556 417 l 454 417 l 154 725 l 33 725 l 365 389 l 13 0 l 135 0 l 454 346 l 556 346 l 556 0 l 657 0 l 657 346 l 758 346 l 1078 0 l 1200 0 l 847 389 l 1179 725 l 1058 725 l 758 417 l 657 417 l 657 725 z "},"з":{"ha":794,"x_min":0,"x_max":0,"o":"m 75 725 l 75 632 l 504 632 b 617 550 579 632 617 606 l 617 499 b 493 414 617 442 575 414 l 290 414 l 290 339 l 493 339 b 622 247 579 339 622 307 l 622 188 b 514 100 622 129 586 100 l 75 100 l 75 0 l 529 0 b 722 158 658 0 722 53 l 722 242 b 622 379 722 311 689 358 b 714 511 683 401 714 447 l 714 572 b 518 725 714 674 649 725 z "},"и":{"ha":861,"x_min":0,"x_max":0,"o":"m 88 725 l 88 0 l 189 0 l 678 579 l 678 0 l 779 0 l 779 725 l 678 725 l 189 150 l 189 725 z "},"й":{"ha":861,"x_min":0,"x_max":0,"o":"m 174 1136 b 428 822 175 928 257 822 b 683 1136 600 822 682 928 l 607 1136 b 428 888 604 968 544 888 b 250 1136 311 888 253 968 z m 88 725 l 88 0 l 189 0 l 678 579 l 678 0 l 779 0 l 779 725 l 678 725 l 189 150 l 189 725 z "},"к":{"ha":744,"x_min":0,"x_max":0,"o":"m 88 725 l 88 0 l 189 0 l 189 346 l 290 346 l 610 0 l 731 0 l 379 389 l 711 725 l 589 725 l 290 417 l 189 417 l 189 725 z "},"л":{"ha":888,"x_min":0,"x_max":0,"o":"m 336 725 l 239 242 b 72 100 217 138 163 100 l 39 100 l 39 0 l 78 0 b 326 210 221 0 296 63 l 411 624 l 704 624 l 704 0 l 806 0 l 806 725 z "},"м":{"ha":1119,"x_min":0,"x_max":0,"o":"m 88 725 l 88 0 l 186 0 l 186 585 l 514 0 l 618 0 l 939 585 l 939 0 l 1038 0 l 1038 725 l 908 725 l 565 93 l 219 725 z "},"н":{"ha":861,"x_min":0,"x_max":0,"o":"m 88 725 l 88 0 l 189 0 l 189 351 l 678 351 l 678 0 l 779 0 l 779 725 l 678 725 l 678 447 l 189 447 l 189 725 z "},"о":{"ha":854,"x_min":0,"x_max":0,"o":"m 304 725 b 78 493 153 725 78 647 l 78 232 b 304 0 78 78 153 0 l 550 0 b 776 232 700 0 776 78 l 776 493 b 550 725 776 647 700 725 z m 179 476 b 324 624 179 575 228 624 l 531 624 b 675 476 626 624 675 575 l 675 249 b 531 100 675 150 626 100 l 324 100 b 179 249 228 100 179 150 z "},"п":{"ha":861,"x_min":0,"x_max":0,"o":"m 88 725 l 88 0 l 189 0 l 189 624 l 678 624 l 678 0 l 779 0 l 779 725 z "},"р":{"ha":851,"x_min":0,"x_max":0,"o":"m 308 725 b 82 493 157 725 82 647 l 82 -246 l 183 -246 l 183 476 b 326 624 183 575 232 624 l 528 624 b 672 476 624 624 672 575 l 672 249 b 528 100 672 150 624 100 l 239 100 l 239 0 l 547 0 b 774 232 699 0 774 78 l 774 493 b 547 725 774 647 699 725 z "},"с":{"ha":693,"x_min":0,"x_max":0,"o":"m 304 725 b 78 493 153 725 78 647 l 78 232 b 304 0 78 78 153 0 l 628 0 l 628 100 l 324 100 b 179 249 228 100 179 150 l 179 476 b 324 624 179 575 228 624 l 628 624 l 628 725 z "},"т":{"ha":783,"x_min":0,"x_max":0,"o":"m 36 725 l 36 624 l 342 624 l 342 0 l 444 0 l 444 624 l 749 624 l 749 725 z "},"у":{"ha":861,"x_min":0,"x_max":0,"o":"m 82 725 l 82 263 b 308 44 82 117 157 44 l 672 44 l 672 11 b 528 -147 672 -94 624 -147 l 215 -147 l 215 -246 l 547 -246 b 774 0 699 -246 774 -164 l 774 725 l 672 725 l 672 139 l 326 139 b 183 278 232 139 183 185 l 183 725 z "},"ф":{"ha":1176,"x_min":0,"x_max":0,"o":"m 536 1024 l 536 721 l 304 721 b 78 489 153 721 78 643 l 78 232 b 304 0 78 78 153 0 l 536 0 l 536 -246 l 638 -246 l 638 0 l 872 0 b 1100 232 1024 0 1100 78 l 1100 489 b 872 721 1100 643 1024 721 l 638 721 l 638 1024 z m 853 622 b 997 474 949 622 997 572 l 997 247 b 853 99 997 149 949 99 l 638 99 l 638 622 z m 179 474 b 324 622 179 572 228 622 l 536 622 l 536 99 l 324 99 b 179 247 228 99 179 149 z "},"х":{"ha":833,"x_min":0,"x_max":0,"o":"m 700 725 l 429 431 l 161 725 l 36 725 l 357 369 l 14 0 l 133 0 l 417 306 l 693 0 l 821 0 l 486 367 l 819 725 z "},"ц":{"ha":904,"x_min":0,"x_max":0,"o":"m 778 101 l 778 725 l 676 725 l 676 101 l 188 101 l 188 725 l 86 725 l 86 0 l 782 0 l 782 -219 l 874 -219 l 874 101 z "},"ч":{"ha":861,"x_min":0,"x_max":0,"o":"m 88 725 l 88 547 b 314 315 88 393 163 315 l 678 315 l 678 0 l 779 0 l 779 725 l 678 725 l 678 407 l 332 407 b 189 554 238 407 189 456 l 189 725 z "},"ш":{"ha":1236,"x_min":0,"x_max":0,"o":"m 88 725 l 88 0 l 1150 0 l 1150 725 l 1049 725 l 1049 100 l 669 100 l 669 725 l 568 725 l 568 100 l 189 100 l 189 725 z "},"щ":{"ha":1288,"x_min":0,"x_max":0,"o":"m 1150 101 l 1150 725 l 1049 725 l 1049 100 l 669 100 l 669 725 l 568 725 l 568 100 l 189 100 l 189 725 l 88 725 l 88 0 l 1165 0 l 1165 -219 l 1257 -219 l 1257 101 z "},"ъ":{"ha":969,"x_min":0,"x_max":0,"o":"m 39 725 l 39 625 l 204 625 l 204 0 l 699 0 b 896 196 831 0 896 65 l 896 267 b 699 456 896 393 831 456 l 360 456 l 360 360 l 682 360 b 794 256 757 360 794 326 l 794 203 b 682 94 794 131 757 94 l 306 94 l 306 725 z "},"ы":{"ha":1067,"x_min":0,"x_max":0,"o":"m 82 725 l 82 0 l 576 0 b 774 196 708 0 774 65 l 774 267 b 576 456 774 393 708 456 l 238 456 l 238 360 l 560 360 b 672 256 635 360 672 326 l 672 203 b 560 94 672 131 635 94 l 183 94 l 183 725 z m 881 725 l 881 0 l 982 0 l 982 725 z "},"ь":{"ha":847,"x_min":0,"x_max":0,"o":"m 82 725 l 82 0 l 576 0 b 774 196 708 0 774 65 l 774 267 b 576 456 774 393 708 456 l 238 456 l 238 360 l 560 360 b 672 256 635 360 672 326 l 672 203 b 560 94 672 131 635 94 l 183 94 l 183 725 z "},"э":{"ha":703,"x_min":0,"x_max":0,"o":"m 75 725 l 75 631 l 357 631 b 524 474 468 631 524 578 l 524 406 l 75 406 l 75 328 l 524 328 l 524 253 b 357 96 524 147 468 96 l 75 96 l 75 0 l 371 0 b 625 246 542 0 625 82 l 625 479 b 371 725 625 643 542 725 z "},"ю":{"ha":1144,"x_min":0,"x_max":0,"o":"m 88 725 l 88 0 l 189 0 l 189 347 l 389 347 l 389 232 b 615 0 389 78 465 0 l 840 0 b 1067 232 992 0 1067 78 l 1067 493 b 840 725 1067 647 992 725 l 615 725 b 389 493 465 725 389 647 l 389 431 l 189 431 l 189 725 z m 492 476 b 635 624 492 575 539 624 l 821 624 b 965 476 917 624 965 575 l 965 249 b 821 100 965 150 917 100 l 635 100 b 492 249 539 100 492 150 z "},"я":{"ha":844,"x_min":0,"x_max":0,"o":"m 258 725 b 90 585 146 725 90 678 l 90 464 b 253 328 90 374 144 328 l 468 328 l 42 0 l 175 0 l 606 331 l 606 400 l 282 400 b 188 469 218 400 188 424 l 188 560 b 282 631 188 607 218 631 l 661 631 l 661 0 l 763 0 l 763 725 z "},"ѐ":{"ha":824,"x_min":0,"x_max":0,"o":"m 304 725 b 78 493 153 725 78 647 l 78 232 b 304 0 78 78 153 0 l 729 0 l 729 99 l 317 99 b 178 242 224 99 178 146 l 178 490 b 321 638 178 588 225 638 l 540 638 b 654 526 617 638 654 600 l 654 493 b 542 397 654 429 617 397 l 233 397 l 233 315 l 569 315 b 753 475 692 315 753 368 l 753 533 b 558 725 753 661 688 725 z m 165 1136 l 422 822 l 522 822 l 285 1136 z "},"ё":{"ha":824,"x_min":0,"x_max":0,"o":"m 304 725 b 78 493 153 725 78 647 l 78 232 b 304 0 78 78 153 0 l 729 0 l 729 99 l 317 99 b 178 242 224 99 178 146 l 178 490 b 321 638 178 588 225 638 l 540 638 b 654 526 617 638 654 600 l 654 493 b 542 397 654 429 617 397 l 233 397 l 233 315 l 569 315 b 753 475 692 315 753 368 l 753 533 b 558 725 753 661 688 725 z m 506 1039 l 506 878 l 600 878 l 600 1039 z m 249 1039 l 249 878 l 343 878 l 343 1039 z "},"ђ":{"ha":861,"x_min":0,"x_max":0,"o":"m 0 903 l 0 822 l 85 822 l 85 0 l 186 0 l 186 624 l 531 624 b 675 476 626 624 675 575 l 675 -25 b 565 -147 675 -106 638 -147 l 519 -147 l 519 -246 l 585 -246 b 776 -36 713 -246 776 -175 l 776 493 b 550 725 776 647 701 725 l 186 725 l 186 822 l 593 822 l 593 903 l 186 903 l 186 1024 l 85 1024 l 85 903 z "},"ѓ":{"ha":708,"x_min":0,"x_max":0,"o":"m 507 1136 l 271 822 l 371 822 l 628 1136 z m 88 725 l 88 0 l 189 0 l 189 624 l 669 624 l 669 725 z "},"є":{"ha":701,"x_min":0,"x_max":0,"o":"m 331 725 b 78 479 161 725 78 643 l 78 246 b 331 0 78 82 161 0 l 628 0 l 628 96 l 346 96 b 179 253 233 96 179 147 l 179 328 l 628 328 l 628 406 l 179 406 l 179 474 b 346 631 179 578 233 631 l 628 631 l 628 725 z "},"ѕ":{"ha":751,"x_min":0,"x_max":0,"o":"m 228 725 b 61 565 117 725 61 671 l 61 483 b 221 335 61 385 115 335 l 513 335 b 597 256 569 335 597 308 l 597 174 b 499 88 597 115 565 88 l 68 88 l 68 0 l 525 0 b 696 161 639 0 696 54 l 696 267 b 538 415 696 365 643 415 l 246 415 b 160 494 188 415 160 442 l 160 551 b 253 638 160 608 190 638 l 664 638 l 664 725 z "},"і":{"ha":413,"x_min":0,"x_max":0,"o":"m 88 718 l 88 0 l 189 0 l 189 718 z m 88 1024 l 88 863 l 189 863 l 189 1024 z "},"ї":{"ha":390,"x_min":0,"x_max":0,"o":"m 276 1039 l 276 878 l 371 878 l 371 1039 z m 19 1039 l 19 878 l 114 878 l 114 1039 z m 144 725 l 144 0 l 246 0 l 246 725 z "},"ј":{"ha":358,"x_min":0,"x_max":0,"o":"m 169 718 l 169 -25 b 60 -147 169 -106 132 -147 l 14 -147 l 14 -246 l 79 -246 b 271 -36 207 -246 271 -175 l 271 718 z m 169 1024 l 169 863 l 271 863 l 271 1024 z "},"љ":{"ha":1471,"x_min":0,"x_max":0,"o":"m 336 725 l 239 242 b 72 100 217 138 163 100 l 39 100 l 39 0 l 78 0 b 326 210 221 0 296 63 l 411 624 l 704 624 l 704 0 l 1200 0 b 1397 196 1332 0 1397 65 l 1397 267 b 1200 456 1397 393 1332 456 l 861 456 l 861 360 l 1183 360 b 1296 256 1258 360 1296 326 l 1296 203 b 1183 94 1296 131 1258 94 l 807 94 l 807 725 z "},"њ":{"ha":1444,"x_min":0,"x_max":0,"o":"m 88 725 l 88 0 l 189 0 l 189 351 l 678 351 l 678 0 l 1174 0 b 1371 196 1306 0 1371 65 l 1371 267 b 1174 456 1371 393 1306 456 l 835 456 l 835 360 l 1157 360 b 1269 256 1232 360 1269 326 l 1269 203 b 1157 94 1269 131 1232 94 l 781 94 l 781 725 l 678 725 l 678 447 l 189 447 l 189 725 z "},"ћ":{"ha":861,"x_min":0,"x_max":0,"o":"m 0 903 l 0 822 l 88 822 l 88 0 l 189 0 l 189 624 l 533 624 b 678 476 629 624 678 575 l 678 0 l 779 0 l 779 493 b 553 725 779 647 704 725 l 189 725 l 189 822 l 593 822 l 593 903 l 189 903 l 189 1024 l 88 1024 l 88 903 z "},"ќ":{"ha":832,"x_min":0,"x_max":0,"o":"m 540 1136 l 304 822 l 404 822 l 661 1136 z m 88 725 l 88 0 l 189 0 l 189 346 l 290 346 l 610 0 l 731 0 l 379 389 l 711 725 l 589 725 l 290 417 l 189 417 l 189 725 z "},"ѝ":{"ha":861,"x_min":0,"x_max":0,"o":"m 183 1136 l 440 822 l 540 822 l 303 1136 z m 88 725 l 88 0 l 189 0 l 678 579 l 678 0 l 779 0 l 779 725 l 678 725 l 189 150 l 189 725 z "},"ў":{"ha":861,"x_min":0,"x_max":0,"o":"m 82 725 l 82 263 b 308 44 82 117 157 44 l 672 44 l 672 11 b 528 -147 672 -94 624 -147 l 215 -147 l 215 -246 l 547 -246 b 774 0 699 -246 774 -164 l 774 725 l 672 725 l 672 139 l 326 139 b 183 278 232 139 183 185 l 183 725 z m 174 1136 b 428 822 175 928 257 822 b 683 1136 600 822 682 928 l 607 1136 b 428 888 604 968 544 888 b 250 1136 311 888 253 968 z "},"џ":{"ha":865,"x_min":0,"x_max":0,"o":"m 778 0 l 778 725 l 676 725 l 676 101 l 188 101 l 188 725 l 86 725 l 86 0 l 385 0 l 385 -219 l 476 -219 l 476 0 z "},"Ẁ":{"ha":1290,"x_min":0,"x_max":0,"o":"m 19 1014 l 292 0 l 397 0 l 647 865 l 889 0 l 996 0 l 1272 1014 l 1163 1014 l 940 175 l 701 1014 l 596 1014 l 349 178 l 129 1014 z m 399 1382 l 656 1068 l 756 1068 l 518 1382 z "},"ẁ":{"ha":1179,"x_min":0,"x_max":0,"o":"m 18 725 l 265 0 l 364 0 l 590 613 l 811 0 l 911 0 l 1161 725 l 1058 725 l 858 129 l 642 725 l 542 725 l 318 131 l 122 725 z m 342 1136 l 599 822 l 699 822 l 461 1136 z "},"Ẃ":{"ha":1290,"x_min":0,"x_max":0,"o":"m 19 1014 l 292 0 l 397 0 l 647 865 l 889 0 l 996 0 l 1272 1014 l 1163 1014 l 940 175 l 701 1014 l 596 1014 l 349 178 l 129 1014 z m 769 1382 l 533 1068 l 633 1068 l 890 1382 z "},"ẃ":{"ha":1179,"x_min":0,"x_max":0,"o":"m 18 725 l 265 0 l 364 0 l 590 613 l 811 0 l 911 0 l 1161 725 l 1058 725 l 858 129 l 642 725 l 542 725 l 318 131 l 122 725 z m 714 1136 l 478 822 l 578 822 l 835 1136 z "},"Ẅ":{"ha":1290,"x_min":0,"x_max":0,"o":"m 19 1014 l 292 0 l 397 0 l 647 865 l 889 0 l 996 0 l 1272 1014 l 1163 1014 l 940 175 l 701 1014 l 596 1014 l 349 178 l 129 1014 z m 728 1285 l 728 1124 l 822 1124 l 822 1285 z m 471 1285 l 471 1124 l 565 1124 l 565 1285 z "},"ẅ":{"ha":1179,"x_min":0,"x_max":0,"o":"m 18 725 l 265 0 l 364 0 l 590 613 l 811 0 l 911 0 l 1161 725 l 1058 725 l 858 129 l 642 725 l 542 725 l 318 131 l 122 725 z m 672 1039 l 672 878 l 767 878 l 767 1039 z m 415 1039 l 415 878 l 510 878 l 510 1039 z "},"Ỳ":{"ha":906,"x_min":0,"x_max":0,"o":"m 14 1014 l 401 431 l 401 0 l 508 0 l 508 431 l 892 1014 l 774 1014 l 456 521 l 136 1014 z m 206 1382 l 463 1068 l 563 1068 l 325 1382 z "},"ỳ":{"ha":861,"x_min":0,"x_max":0,"o":"m 82 725 l 82 263 b 308 44 82 117 157 44 l 672 44 l 672 11 b 528 -147 672 -94 624 -147 l 215 -147 l 215 -246 l 547 -246 b 774 0 699 -246 774 -164 l 774 725 l 672 725 l 672 139 l 326 139 b 183 278 232 139 183 185 l 183 725 z m 183 1136 l 440 822 l 540 822 l 303 1136 z "},"–":{"ha":711,"x_min":0,"x_max":0,"o":"m 35 485 l 35 399 l 676 399 l 676 485 z "},"—":{"ha":1017,"x_min":0,"x_max":0,"o":"m 35 485 l 35 399 l 982 399 l 982 485 z "},"‘":{"ha":238,"x_min":0,"x_max":0,"o":"m 169 665 l 169 824 l 136 824 l 153 1014 l 101 1014 l 68 814 l 68 665 z "},"’":{"ha":238,"x_min":0,"x_max":0,"o":"m 68 1014 l 68 856 l 101 856 l 85 665 l 136 665 l 169 865 l 169 1014 z "},"‚":{"ha":238,"x_min":0,"x_max":0,"o":"m 68 163 l 68 4 l 101 4 l 85 -186 l 136 -186 l 169 14 l 169 163 z "},"“":{"ha":421,"x_min":0,"x_max":0,"o":"m 353 665 l 353 824 l 319 824 l 336 1014 l 285 1014 l 251 814 l 251 665 z m 169 665 l 169 824 l 136 824 l 153 1014 l 101 1014 l 68 814 l 68 665 z "},"”":{"ha":421,"x_min":0,"x_max":0,"o":"m 251 1014 l 251 856 l 285 856 l 268 665 l 319 665 l 353 865 l 353 1014 z m 68 1014 l 68 856 l 101 856 l 85 665 l 136 665 l 169 865 l 169 1014 z "},"„":{"ha":421,"x_min":0,"x_max":0,"o":"m 251 163 l 251 4 l 285 4 l 268 -186 l 319 -186 l 353 14 l 353 163 z m 68 163 l 68 4 l 101 4 l 85 -186 l 136 -186 l 169 14 l 169 163 z "},"†":{"ha":668,"x_min":0,"x_max":0,"o":"m 292 1014 l 300 756 l 68 756 l 68 686 l 300 686 l 313 0 l 354 0 l 368 686 l 600 686 l 600 756 l 368 756 l 375 1014 z "},"‡":{"ha":668,"x_min":0,"x_max":0,"o":"m 292 1014 l 300 756 l 68 756 l 68 686 l 300 686 l 319 418 l 300 150 l 68 150 l 68 81 l 300 81 l 292 -178 l 375 -178 l 368 81 l 600 81 l 600 150 l 368 150 l 347 418 l 368 686 l 600 686 l 600 756 l 368 756 l 375 1014 z "},"•":{"ha":561,"x_min":0,"x_max":0,"o":"m 279 721 l 54 321 l 507 321 z "},"…":{"ha":875,"x_min":0,"x_max":0,"o":"m 386 161 l 386 0 l 488 0 l 488 161 z m 690 161 l 690 0 l 792 0 l 792 161 z m 83 161 l 83 0 l 185 0 l 185 161 z "},"‰":{"ha":1531,"x_min":0,"x_max":0,"o":"m 808 1014 l 164 0 l 247 0 l 890 1014 z m 736 565 b 606 432 649 565 606 521 l 606 132 b 736 0 606 44 649 0 l 890 0 b 1019 132 975 0 1019 44 l 1019 432 b 890 565 1019 521 975 565 z m 676 421 b 749 494 676 471 699 494 l 878 494 b 949 421 925 494 949 471 l 949 143 b 878 69 949 94 925 69 l 749 69 b 676 143 699 69 676 94 z m 1204 565 b 1074 432 1117 565 1074 521 l 1074 132 b 1204 0 1074 44 1117 0 l 1358 0 b 1488 132 1443 0 1488 44 l 1488 432 b 1358 565 1488 521 1443 565 z m 1144 421 b 1217 494 1144 471 1167 494 l 1346 494 b 1417 421 1393 494 1417 471 l 1417 143 b 1346 69 1417 94 1393 69 l 1217 69 b 1144 143 1167 69 1144 94 z m 161 1014 b 31 881 74 1014 31 969 l 31 581 b 161 449 31 493 74 449 l 315 449 b 444 581 400 449 444 493 l 444 881 b 315 1014 444 969 400 1014 z m 101 869 b 174 943 101 919 124 943 l 303 943 b 374 869 350 943 374 919 l 374 592 b 303 518 374 543 350 518 l 174 518 b 101 592 124 518 101 543 z "},"‹":{"ha":425,"x_min":0,"x_max":0,"o":"m 35 399 l 35 328 l 390 0 l 390 100 l 101 363 l 390 624 l 390 725 z "},"›":{"ha":426,"x_min":0,"x_max":0,"o":"m 392 326 l 392 397 l 36 725 l 36 625 l 325 361 l 36 101 l 36 0 z "},"⁄":{"ha":242,"x_min":0,"x_max":0,"o":"m 401 1014 l -243 0 l -160 0 l 483 1014 z "},"⁰":{"ha":531,"x_min":0,"x_max":0,"o":"m 186 1013 b 56 879 99 1013 56 968 l 56 579 b 186 447 56 492 99 447 l 340 447 b 469 579 425 447 469 492 l 469 879 b 340 1013 469 968 425 1013 z m 126 868 b 199 942 126 918 149 942 l 328 942 b 399 868 375 942 399 918 l 399 590 b 328 517 399 542 375 517 l 199 517 b 126 590 149 517 126 542 z "},"⁴":{"ha":508,"x_min":0,"x_max":0,"o":"m 221 1013 l 31 607 l 31 547 l 361 547 l 361 447 l 431 447 l 431 547 l 472 547 l 472 614 l 431 614 l 431 1013 l 361 1013 l 361 614 l 106 614 l 286 1013 z "},"⁵":{"ha":493,"x_min":0,"x_max":0,"o":"m 63 1013 l 63 707 l 311 707 b 378 642 356 707 378 686 l 378 592 b 304 517 378 542 353 517 l 61 517 l 61 447 l 311 447 b 447 585 403 447 447 493 l 447 647 b 322 772 447 729 406 772 l 133 772 l 133 942 l 425 942 l 425 1013 z "},"⁶":{"ha":515,"x_min":0,"x_max":0,"o":"m 186 1013 b 56 879 99 1013 56 968 l 56 579 b 186 447 56 492 99 447 l 335 447 b 457 574 415 447 457 489 l 457 654 b 335 781 457 739 415 781 l 174 781 l 174 714 l 329 714 b 393 646 372 714 393 692 l 393 586 b 329 517 393 539 372 517 l 196 517 b 126 589 149 517 126 542 l 126 868 b 196 942 126 918 149 942 l 443 942 l 443 1013 z "},"⁷":{"ha":446,"x_min":0,"x_max":0,"o":"m 33 1013 l 33 942 l 328 942 l 121 447 l 200 447 l 407 951 l 407 1013 z "},"⁸":{"ha":501,"x_min":0,"x_max":0,"o":"m 178 1013 b 47 879 92 1013 47 968 l 47 828 b 89 732 47 785 60 751 b 43 640 56 715 43 682 l 43 579 b 174 447 43 492 86 447 l 324 447 b 454 579 411 447 454 492 l 454 640 b 410 732 454 682 442 715 b 450 828 438 751 450 785 l 450 879 b 318 1013 450 968 407 1013 z m 114 647 b 158 704 114 682 128 704 l 338 704 b 383 647 369 704 383 682 l 383 590 b 313 517 383 540 360 517 l 185 517 b 114 590 136 517 114 540 z m 115 869 b 189 943 115 918 139 943 l 308 943 b 381 869 358 943 381 918 l 381 821 b 338 764 381 786 367 764 l 158 764 b 115 821 131 764 115 786 z "},"⁹":{"ha":513,"x_min":0,"x_max":0,"o":"m 174 1013 b 51 886 93 1013 51 971 l 51 806 b 174 679 51 721 93 679 l 333 679 l 333 746 l 181 746 b 115 813 136 746 115 768 l 115 875 b 181 943 115 921 136 943 l 311 943 b 382 871 358 943 382 919 l 382 590 b 311 518 382 542 358 518 l 65 518 l 65 447 l 322 447 b 453 581 410 447 453 492 l 453 881 b 322 1013 453 968 410 1013 z "},"₀":{"ha":531,"x_min":0,"x_max":0,"o":"m 186 565 b 56 432 99 565 56 521 l 56 132 b 186 0 56 44 99 0 l 340 0 b 469 132 425 0 469 44 l 469 432 b 340 565 469 521 425 565 z m 126 421 b 199 494 126 471 149 494 l 328 494 b 399 421 375 494 399 471 l 399 143 b 328 69 399 94 375 69 l 199 69 b 126 143 149 69 126 94 z "},"₁":{"ha":293,"x_min":0,"x_max":0,"o":"m 33 565 l 33 494 l 94 494 b 163 426 139 494 163 472 l 163 0 l 233 0 l 233 439 b 108 565 233 524 192 565 z "},"₂":{"ha":500,"x_min":0,"x_max":0,"o":"m 69 565 l 69 494 l 313 494 b 376 429 356 494 376 472 l 376 378 b 319 318 376 339 358 318 l 193 318 b 60 181 104 318 60 272 l 60 0 l 436 0 l 436 69 l 131 69 l 131 176 b 204 254 131 228 156 254 l 331 254 b 446 374 407 254 446 293 l 446 435 b 319 565 446 522 404 565 z "},"₃":{"ha":468,"x_min":0,"x_max":0,"o":"m 49 565 l 49 494 l 278 494 b 347 422 325 494 347 471 l 347 374 b 304 318 347 339 335 318 l 57 318 l 57 251 l 304 251 b 350 197 336 251 350 232 l 350 142 b 281 69 350 93 328 69 l 46 69 l 46 0 l 290 0 b 419 132 378 0 419 44 l 419 193 b 375 285 419 236 408 268 b 417 381 404 304 417 338 l 417 432 b 285 565 417 521 374 565 z "},"₄":{"ha":508,"x_min":0,"x_max":0,"o":"m 221 565 l 31 160 l 31 100 l 361 100 l 361 0 l 431 0 l 431 100 l 472 100 l 472 167 l 431 167 l 431 565 l 361 565 l 361 167 l 106 167 l 286 565 z "},"₅":{"ha":493,"x_min":0,"x_max":0,"o":"m 63 565 l 63 260 l 311 260 b 378 194 356 260 378 239 l 378 144 b 304 69 378 94 353 69 l 61 69 l 61 0 l 311 0 b 447 138 403 0 447 46 l 447 200 b 322 325 447 282 406 325 l 133 325 l 133 494 l 425 494 l 425 565 z "},"₆":{"ha":515,"x_min":0,"x_max":0,"o":"m 186 565 b 56 432 99 565 56 521 l 56 132 b 186 0 56 44 99 0 l 335 0 b 457 126 415 0 457 42 l 457 207 b 335 333 457 292 415 333 l 174 333 l 174 267 l 329 267 b 393 199 372 267 393 244 l 393 139 b 329 69 393 92 372 69 l 196 69 b 126 142 149 69 126 94 l 126 421 b 196 494 126 471 149 494 l 443 494 l 443 565 z "},"₇":{"ha":446,"x_min":0,"x_max":0,"o":"m 33 565 l 33 494 l 328 494 l 121 0 l 200 0 l 407 504 l 407 565 z "},"₈":{"ha":501,"x_min":0,"x_max":0,"o":"m 178 565 b 47 432 92 565 47 521 l 47 381 b 89 285 47 338 60 304 b 43 193 56 268 43 235 l 43 132 b 174 0 43 44 86 0 l 324 0 b 454 132 411 0 454 44 l 454 193 b 410 285 454 235 442 268 b 450 381 438 304 450 338 l 450 432 b 318 565 450 521 407 565 z m 114 200 b 158 257 114 235 128 257 l 338 257 b 383 200 369 257 383 235 l 383 143 b 313 69 383 93 360 69 l 185 69 b 114 143 136 69 114 93 z m 115 422 b 189 496 115 471 139 496 l 308 496 b 381 422 358 496 381 471 l 381 374 b 338 317 381 339 367 317 l 158 317 b 115 374 131 317 115 339 z "},"₉":{"ha":513,"x_min":0,"x_max":0,"o":"m 174 565 b 51 439 93 565 51 524 l 51 358 b 174 232 51 274 93 232 l 333 232 l 333 299 l 181 299 b 115 365 136 299 115 321 l 115 428 b 181 496 115 474 136 496 l 311 496 b 382 424 358 496 382 472 l 382 143 b 311 71 382 94 358 71 l 65 71 l 65 0 l 322 0 b 453 133 410 0 453 44 l 453 433 b 322 565 453 521 410 565 z "},"€":{"ha":783,"x_min":0,"x_max":0,"o":"m 363 1014 b 138 783 213 1014 138 938 l 138 631 l 49 631 l 49 574 l 138 574 l 138 440 l 49 440 l 49 383 l 138 383 l 138 231 b 363 0 138 76 213 0 l 738 0 l 738 104 l 383 104 b 243 247 289 104 243 151 l 243 383 l 517 383 l 538 440 l 243 440 l 243 574 l 586 574 l 606 631 l 243 631 l 243 767 b 383 910 243 863 289 910 l 708 910 l 747 1014 z "},"₹":{"ha":897,"x_min":0,"x_max":0,"o":"m 71 1014 l 71 929 l 588 929 l 588 722 l 71 722 l 71 647 l 588 647 l 588 550 b 447 407 588 456 542 407 l 372 407 l 372 326 l 574 0 l 694 0 l 488 329 b 690 546 622 340 690 413 l 690 647 l 844 647 l 844 722 l 690 722 l 690 929 l 843 929 l 843 1014 z "},"₺":{"ha":926,"x_min":0,"x_max":0,"o":"m 0 640 l 0 554 l 142 649 l 142 447 l 0 353 l 0 267 l 142 361 l 142 0 l 583 0 b 850 272 760 0 850 90 l 850 410 l 743 410 l 743 279 b 572 104 743 161 686 104 l 247 104 l 247 431 l 574 649 l 574 736 l 247 518 l 247 718 l 574 936 l 574 1025 l 247 806 l 247 1014 l 142 1014 l 142 735 z "},"₽":{"ha":869,"x_min":0,"x_max":0,"o":"m 122 1014 l 122 476 l 50 476 l 50 401 l 122 401 l 122 251 l 50 251 l 50 176 l 122 176 l 122 0 l 228 0 l 228 176 l 785 176 l 785 251 l 228 251 l 228 401 l 586 401 b 817 631 740 401 817 478 l 817 742 b 550 1014 817 924 728 1014 z m 228 910 l 540 910 b 711 735 654 910 711 853 l 711 622 b 564 476 711 525 663 476 l 228 476 z "},"℗":{"ha":1086,"x_min":0,"x_max":0,"o":"m 276 1014 b 78 808 144 1014 78 946 l 78 206 b 276 0 78 68 144 0 l 808 0 b 1008 203 940 0 1008 67 l 1008 808 b 808 1014 1008 946 940 1014 z m 140 801 b 283 947 140 900 189 947 l 801 947 b 944 801 896 947 944 900 l 944 210 b 801 65 944 114 896 65 l 283 65 b 140 213 189 65 140 114 z m 354 767 l 354 244 l 417 244 l 417 704 l 618 704 b 678 644 658 704 678 685 l 678 597 b 618 538 678 557 658 538 l 463 538 l 463 478 l 624 478 b 740 596 701 478 740 517 l 740 647 b 624 767 740 726 701 767 z "},"™":{"ha":1238,"x_min":0,"x_max":0,"o":"m 585 1014 l 585 406 l 651 406 l 651 881 l 836 406 l 904 406 l 1085 878 l 1085 406 l 1150 406 l 1150 1014 l 1071 1014 l 871 486 l 668 1014 z m 68 1014 l 68 944 l 246 944 l 246 406 l 315 406 l 315 944 l 494 944 l 494 1014 z "},"⅓":{"ha":1076,"x_min":0,"x_max":0,"o":"m 739 1014 l 94 0 l 178 0 l 821 1014 z m 78 1013 l 78 942 l 139 942 b 207 874 183 942 207 919 l 207 447 l 278 447 l 278 886 b 153 1013 278 971 236 1013 z m 628 565 l 628 494 l 857 494 b 926 422 904 494 926 471 l 926 374 b 883 318 926 339 914 318 l 636 318 l 636 251 l 883 251 b 929 197 915 251 929 232 l 929 142 b 860 69 929 93 907 69 l 625 69 l 625 0 l 869 0 b 999 132 957 0 999 44 l 999 193 b 954 285 999 236 988 268 b 996 381 983 304 996 338 l 996 432 b 864 565 996 521 953 565 z "},"⅔":{"ha":1257,"x_min":0,"x_max":0,"o":"m 919 1014 l 275 0 l 358 0 l 1001 1014 z m 88 1013 l 88 942 l 331 942 b 394 876 374 942 394 919 l 394 825 b 338 765 394 786 376 765 l 211 765 b 78 628 122 765 78 719 l 78 447 l 454 447 l 454 517 l 149 517 l 149 624 b 222 701 149 675 174 701 l 349 701 b 464 821 425 701 464 740 l 464 882 b 338 1013 464 969 422 1013 z m 807 565 l 807 494 l 1036 494 b 1106 422 1083 494 1106 471 l 1106 374 b 1063 318 1106 339 1093 318 l 815 318 l 815 251 l 1063 251 b 1108 197 1094 251 1108 232 l 1108 142 b 1039 69 1108 93 1086 69 l 804 69 l 804 0 l 1049 0 b 1178 132 1136 0 1178 44 l 1178 193 b 1133 285 1178 236 1167 268 b 1175 381 1163 304 1175 338 l 1175 432 b 1043 565 1175 521 1132 565 z "},"⅕":{"ha":1103,"x_min":0,"x_max":0,"o":"m 739 1014 l 94 0 l 178 0 l 821 1014 z m 78 1013 l 78 942 l 139 942 b 207 874 183 942 207 919 l 207 447 l 278 447 l 278 886 b 153 1013 278 971 236 1013 z m 640 565 l 640 260 l 889 260 b 956 194 933 260 956 239 l 956 144 b 882 69 956 94 931 69 l 639 69 l 639 0 l 889 0 b 1025 138 981 0 1025 46 l 1025 200 b 900 325 1025 282 983 325 l 711 325 l 711 494 l 1003 494 l 1003 565 z "},"⅖":{"ha":1283,"x_min":0,"x_max":0,"o":"m 919 1014 l 275 0 l 358 0 l 1001 1014 z m 88 1013 l 88 942 l 331 942 b 394 876 374 942 394 919 l 394 825 b 338 765 394 786 376 765 l 211 765 b 78 628 122 765 78 719 l 78 447 l 454 447 l 454 517 l 149 517 l 149 624 b 222 701 149 675 174 701 l 349 701 b 464 821 425 701 464 740 l 464 882 b 338 1013 464 969 422 1013 z m 821 565 l 821 260 l 1069 260 b 1136 194 1114 260 1136 239 l 1136 144 b 1063 69 1136 94 1111 69 l 819 69 l 819 0 l 1069 0 b 1206 138 1161 0 1206 46 l 1206 200 b 1081 325 1206 282 1164 325 l 892 325 l 892 494 l 1183 494 l 1183 565 z "},"⅗":{"ha":1238,"x_min":0,"x_max":0,"o":"m 874 1014 l 229 0 l 313 0 l 956 1014 z m 775 565 l 775 260 l 1024 260 b 1090 194 1068 260 1090 239 l 1090 144 b 1017 69 1090 94 1065 69 l 774 69 l 774 0 l 1024 0 b 1160 138 1115 0 1160 46 l 1160 200 b 1035 325 1160 282 1118 325 l 846 325 l 846 494 l 1138 494 l 1138 565 z m 79 1013 l 79 942 l 308 942 b 378 869 356 942 378 918 l 378 821 b 335 765 378 786 365 765 l 88 765 l 88 699 l 335 699 b 381 644 367 699 381 679 l 381 589 b 311 517 381 540 358 517 l 76 517 l 76 447 l 321 447 b 450 579 408 447 450 492 l 450 640 b 406 732 450 683 439 715 b 447 828 435 751 447 785 l 447 879 b 315 1013 447 968 404 1013 z "},"⅘":{"ha":1321,"x_min":0,"x_max":0,"o":"m 956 1014 l 311 0 l 394 0 l 1038 1014 z m 857 565 l 857 260 l 1106 260 b 1172 194 1150 260 1172 239 l 1172 144 b 1099 69 1172 94 1147 69 l 856 69 l 856 0 l 1106 0 b 1242 138 1197 0 1242 46 l 1242 200 b 1117 325 1242 282 1200 325 l 928 325 l 928 494 l 1219 494 l 1219 565 z m 267 1013 l 76 607 l 76 547 l 407 547 l 407 447 l 476 447 l 476 547 l 518 547 l 518 614 l 476 614 l 476 1013 l 407 1013 l 407 614 l 151 614 l 332 1013 z "},"⅙":{"ha":1086,"x_min":0,"x_max":0,"o":"m 739 1014 l 94 0 l 178 0 l 821 1014 z m 78 1013 l 78 942 l 139 942 b 207 874 183 942 207 919 l 207 447 l 278 447 l 278 886 b 153 1013 278 971 236 1013 z m 738 565 b 607 432 650 565 607 521 l 607 132 b 738 0 607 44 650 0 l 886 0 b 1008 126 967 0 1008 42 l 1008 207 b 886 333 1008 292 967 333 l 725 333 l 725 267 l 881 267 b 944 199 924 267 944 244 l 944 139 b 881 69 944 92 924 69 l 747 69 b 678 142 700 69 678 94 l 678 421 b 747 494 678 471 700 494 l 994 494 l 994 565 z "},"⅚":{"ha":1229,"x_min":0,"x_max":0,"o":"m 882 1014 l 238 0 l 321 0 l 964 1014 z m 882 565 b 751 432 794 565 751 521 l 751 132 b 882 0 751 44 794 0 l 1031 0 b 1153 126 1111 0 1153 42 l 1153 207 b 1031 333 1153 292 1111 333 l 869 333 l 869 267 l 1025 267 b 1089 199 1068 267 1089 244 l 1089 139 b 1025 69 1089 92 1068 69 l 892 69 b 822 142 844 69 822 94 l 822 421 b 892 494 822 471 844 494 l 1139 494 l 1139 565 z m 79 1013 l 79 707 l 328 707 b 394 642 372 707 394 686 l 394 592 b 321 517 394 542 369 517 l 78 517 l 78 447 l 328 447 b 464 585 419 447 464 493 l 464 647 b 339 772 464 729 422 772 l 150 772 l 150 942 l 442 942 l 442 1013 z "},"⅛":{"ha":1083,"x_min":0,"x_max":0,"o":"m 739 1014 l 94 0 l 178 0 l 821 1014 z m 78 1013 l 78 942 l 139 942 b 207 874 183 942 207 919 l 207 447 l 278 447 l 278 886 b 153 1013 278 971 236 1013 z m 729 565 b 599 432 643 565 599 521 l 599 381 b 640 285 599 338 611 304 b 594 193 607 268 594 235 l 594 132 b 725 0 594 44 638 0 l 875 0 b 1006 132 963 0 1006 44 l 1006 193 b 961 285 1006 235 993 268 b 1001 381 989 304 1001 338 l 1001 432 b 869 565 1001 521 958 565 z m 665 200 b 710 257 665 235 679 257 l 889 257 b 935 200 921 257 935 235 l 935 143 b 864 69 935 93 911 69 l 736 69 b 665 143 688 69 665 93 z m 667 422 b 740 496 667 471 690 496 l 860 496 b 932 422 910 496 932 471 l 932 374 b 889 317 932 339 918 317 l 710 317 b 667 374 682 317 667 339 z "},"⅜":{"ha":1217,"x_min":0,"x_max":0,"o":"m 874 1014 l 229 0 l 313 0 l 956 1014 z m 864 565 b 733 432 778 565 733 521 l 733 381 b 775 285 733 338 746 304 b 729 193 742 268 729 235 l 729 132 b 860 0 729 44 772 0 l 1010 0 b 1140 132 1097 0 1140 44 l 1140 193 b 1096 285 1140 235 1128 268 b 1136 381 1124 304 1136 338 l 1136 432 b 1004 565 1136 521 1093 565 z m 800 200 b 844 257 800 235 814 257 l 1024 257 b 1069 200 1056 257 1069 235 l 1069 143 b 999 69 1069 93 1046 69 l 871 69 b 800 143 822 69 800 93 z m 801 422 b 875 496 801 471 825 496 l 994 496 b 1067 422 1044 496 1067 471 l 1067 374 b 1024 317 1067 339 1053 317 l 844 317 b 801 374 817 317 801 339 z m 79 1013 l 79 942 l 308 942 b 378 869 356 942 378 918 l 378 821 b 335 765 378 786 365 765 l 88 765 l 88 699 l 335 699 b 381 644 367 699 381 679 l 381 589 b 311 517 381 540 358 517 l 76 517 l 76 447 l 321 447 b 450 579 408 447 450 492 l 450 640 b 406 732 450 683 439 715 b 447 828 435 751 447 785 l 447 879 b 315 1013 447 968 404 1013 z "},"⅝":{"ha":1226,"x_min":0,"x_max":0,"o":"m 882 1014 l 238 0 l 321 0 l 964 1014 z m 79 1013 l 79 707 l 328 707 b 394 642 372 707 394 686 l 394 592 b 321 517 394 542 369 517 l 78 517 l 78 447 l 328 447 b 464 585 419 447 464 493 l 464 647 b 339 772 464 729 422 772 l 150 772 l 150 942 l 442 942 l 442 1013 z m 874 565 b 743 432 788 565 743 521 l 743 381 b 785 285 743 338 756 304 b 739 193 751 268 739 235 l 739 132 b 869 0 739 44 782 0 l 1019 0 b 1150 132 1107 0 1150 44 l 1150 193 b 1106 285 1150 235 1138 268 b 1146 381 1133 304 1146 338 l 1146 432 b 1014 565 1146 521 1103 565 z m 810 200 b 854 257 810 235 824 257 l 1033 257 b 1079 200 1065 257 1079 235 l 1079 143 b 1008 69 1079 93 1056 69 l 881 69 b 810 143 832 69 810 93 z m 811 422 b 885 496 811 471 835 496 l 1004 496 b 1076 422 1054 496 1076 471 l 1076 374 b 1033 317 1076 339 1063 317 l 854 317 b 811 374 826 317 811 339 z "},"⅞":{"ha":1182,"x_min":0,"x_max":0,"o":"m 838 1014 l 193 0 l 276 0 l 919 1014 z m 828 565 b 697 432 742 565 697 521 l 697 381 b 739 285 697 338 710 304 b 693 193 706 268 693 235 l 693 132 b 824 0 693 44 736 0 l 974 0 b 1104 132 1061 0 1104 44 l 1104 193 b 1060 285 1104 235 1092 268 b 1100 381 1088 304 1100 338 l 1100 432 b 968 565 1100 521 1057 565 z m 764 200 b 808 257 764 235 778 257 l 988 257 b 1033 200 1019 257 1033 235 l 1033 143 b 963 69 1033 93 1010 69 l 835 69 b 764 143 786 69 764 93 z m 765 422 b 839 496 765 471 789 496 l 958 496 b 1031 422 1008 496 1031 471 l 1031 374 b 988 317 1031 339 1017 317 l 808 317 b 765 374 781 317 765 339 z m 78 1013 l 78 942 l 372 942 l 165 447 l 244 447 l 451 951 l 451 1013 z "},"∂":{"ha":808,"x_min":0,"x_max":0,"o":"m 331 951 b 404 957 350 954 379 957 b 675 567 553 957 675 865 b 672 489 675 542 674 515 b 367 660 607 596 490 660 b 61 314 186 660 61 528 b 364 -17 61 106 181 -17 b 747 567 660 -17 747 301 b 408 1028 747 932 582 1028 b 331 1021 379 1028 356 1025 z m 364 54 b 133 317 229 54 133 138 b 374 589 133 492 225 589 b 664 415 490 589 599 529 b 364 54 638 236 558 54 z "},"∏":{"ha":1013,"x_min":0,"x_max":0,"o":"m 68 1282 l 68 -246 l 156 -246 l 156 1193 l 857 1193 l 857 -246 l 944 -246 l 944 1282 z "},"∑":{"ha":1011,"x_min":0,"x_max":0,"o":"m 68 1282 l 68 1214 l 649 517 l 68 -178 l 68 -246 l 943 -246 l 943 -158 l 193 -158 l 753 517 l 193 1193 l 943 1193 l 943 1282 z "},"−":{"ha":908,"x_min":0,"x_max":0,"o":"m 68 551 l 68 463 l 840 463 l 840 551 z "},"√":{"ha":914,"x_min":0,"x_max":0,"o":"m 29 471 l 29 393 l 189 393 l 371 0 l 456 0 l 889 1014 l 799 1014 l 411 88 l 236 471 z "},"∞":{"ha":1238,"x_min":0,"x_max":0,"o":"m 618 569 b 306 782 554 699 457 782 b 38 510 157 782 38 689 b 306 238 38 332 156 238 b 618 449 457 238 558 321 b 932 238 681 321 781 238 b 1199 510 1082 238 1199 332 b 932 782 1199 689 1081 782 b 618 569 781 782 683 699 z m 585 508 b 314 311 532 396 442 311 b 114 510 197 311 114 379 b 314 707 114 636 197 707 b 585 508 440 707 528 624 z m 653 508 b 922 707 710 624 799 707 b 1125 510 1039 707 1125 636 b 922 311 1125 379 1040 311 b 653 508 796 311 707 396 z "},"∫":{"ha":544,"x_min":0,"x_max":0,"o":"m 403 1299 b 229 1101 286 1299 229 1233 l 229 -75 b 125 -196 229 -156 194 -196 l 68 -196 l 68 -285 l 142 -285 b 317 -87 258 -285 317 -219 l 317 1089 b 419 1210 317 1169 351 1210 l 476 1210 l 476 1299 z "},"≈":{"ha":908,"x_min":0,"x_max":0,"o":"m 68 271 b 249 360 136 336 181 360 b 663 236 404 360 503 236 b 840 311 739 236 793 265 l 840 414 b 660 321 772 343 722 321 b 246 446 508 321 408 446 b 68 369 164 446 110 414 z m 68 608 b 249 697 136 674 181 697 b 663 574 404 697 503 574 b 840 649 739 574 793 603 l 840 751 b 660 658 772 681 722 658 b 246 783 508 658 408 783 b 68 707 164 783 110 751 z "},"≠":{"ha":908,"x_min":0,"x_max":0,"o":"m 68 361 l 68 272 l 263 272 l 90 0 l 174 0 l 346 272 l 840 272 l 840 361 l 403 361 l 588 653 l 840 653 l 840 742 l 643 742 l 817 1014 l 735 1014 l 561 742 l 68 742 l 68 653 l 504 653 l 319 361 z "},"≤":{"ha":908,"x_min":0,"x_max":0,"o":"m 68 690 l 68 603 l 840 253 l 840 344 l 160 646 l 840 947 l 840 1039 z m 68 146 l 68 57 l 840 57 l 840 146 z "},"≥":{"ha":908,"x_min":0,"x_max":0,"o":"m 840 601 l 840 689 l 68 1039 l 68 947 l 749 646 l 68 344 l 68 253 z m 68 146 l 68 57 l 840 57 l 840 146 z "},"◊":{"ha":833,"x_min":0,"x_max":0,"o":"m 372 1014 l 47 507 l 372 0 l 461 0 l 785 507 l 461 1014 z m 692 507 l 415 65 l 143 507 l 415 949 z "}}}
